M48
;Layer_Color=9474304
;FILE_FORMAT=4:4
METRIC,LZ
;TYPE=PLATED
T1F00S00C0.4000
T2F00S00C1.1000
T3F00S00C1.2700
T4F00S00C1.5000
T5F00S00C1.6000
%
T01
X0013Y00110858
X00161Y00139
X00223Y00101
X00186Y000555
X00315Y00063
X00385Y00125
X00494Y00094
X00457Y00197
X00469Y00231
X00461Y00253
X00502Y00243
X00409Y00257
X00412Y00271
X00398942Y00282684
X00368Y00283
X00356Y00272
X00356164Y00296103
X003815Y00306338
X00384Y00252
X00316049Y00233445
X00305322Y00232123
X00323549Y00224497
X00307Y00198
X00326Y00175
X00318Y00166
X00345Y00171
X00364805Y00164938
X00379Y00169
X00412174Y00153497
X0029Y0016
X00232Y00152
X00213Y0015855
X00185Y00171
X00183346Y00190773
X00153Y00174
X00239Y00194
X00242Y00222
X00224Y00302
X00203Y00287
X00197Y00317
X00179Y00337
X00245Y00338
X00268923Y00349835
X0026Y00386
X00256Y00308
X00275Y00309
X00291Y00304885
X00313Y00325
X00333Y00354
X003525Y00339
X0037Y00362
X00397Y00373
X00424Y00371
X00355Y00386
X00308Y00279
X00142Y0028
X00147Y00294
X00133Y00296
X00123Y00386
X00115Y00195
X00048Y00255
T02
X000466Y0003
X00072
X000974
X001228
X00032Y000776
Y00103
X00561Y00225
Y002504
X00032Y002466
Y002212
Y00171
Y001456
Y00272
Y0031478
Y0034018
Y0036558
T03
X00474Y003
Y003255
X00474Y00351
T04
X00559Y0004253
Y0009253
Y0014253
T05
X00557Y003002
Y00351
M30
