G04*
G04 #@! TF.GenerationSoftware,Altium Limited,Altium Designer,22.5.1 (42)*
G04*
G04 Layer_Physical_Order=1*
G04 Layer_Color=255*
%FSLAX44Y44*%
%MOMM*%
G71*
G04*
G04 #@! TF.SameCoordinates,7BE4DF7C-7C26-4D94-8E65-31FE19049D94*
G04*
G04*
G04 #@! TF.FilePolarity,Positive*
G04*
G01*
G75*
%ADD16C,0.5000*%
G04:AMPARAMS|DCode=19|XSize=1.7mm|YSize=0.6mm|CornerRadius=0.15mm|HoleSize=0mm|Usage=FLASHONLY|Rotation=180.000|XOffset=0mm|YOffset=0mm|HoleType=Round|Shape=RoundedRectangle|*
%AMROUNDEDRECTD19*
21,1,1.7000,0.3000,0,0,180.0*
21,1,1.4000,0.6000,0,0,180.0*
1,1,0.3000,-0.7000,0.1500*
1,1,0.3000,0.7000,0.1500*
1,1,0.3000,0.7000,-0.1500*
1,1,0.3000,-0.7000,-0.1500*
%
%ADD19ROUNDEDRECTD19*%
%ADD20R,1.3000X0.7000*%
%ADD21R,2.5000X1.7000*%
%ADD22R,0.5588X0.6858*%
%ADD23R,1.7000X0.6000*%
G04:AMPARAMS|DCode=24|XSize=0.7mm|YSize=0.43mm|CornerRadius=0.1075mm|HoleSize=0mm|Usage=FLASHONLY|Rotation=90.000|XOffset=0mm|YOffset=0mm|HoleType=Round|Shape=RoundedRectangle|*
%AMROUNDEDRECTD24*
21,1,0.7000,0.2150,0,0,90.0*
21,1,0.4850,0.4300,0,0,90.0*
1,1,0.2150,0.1075,0.2425*
1,1,0.2150,0.1075,-0.2425*
1,1,0.2150,-0.1075,-0.2425*
1,1,0.2150,-0.1075,0.2425*
%
%ADD24ROUNDEDRECTD24*%
G04:AMPARAMS|DCode=25|XSize=1.21mm|YSize=0.59mm|CornerRadius=0.1475mm|HoleSize=0mm|Usage=FLASHONLY|Rotation=180.000|XOffset=0mm|YOffset=0mm|HoleType=Round|Shape=RoundedRectangle|*
%AMROUNDEDRECTD25*
21,1,1.2100,0.2950,0,0,180.0*
21,1,0.9150,0.5900,0,0,180.0*
1,1,0.2950,-0.4575,0.1475*
1,1,0.2950,0.4575,0.1475*
1,1,0.2950,0.4575,-0.1475*
1,1,0.2950,-0.4575,-0.1475*
%
%ADD25ROUNDEDRECTD25*%
G04:AMPARAMS|DCode=26|XSize=1.5mm|YSize=0.38mm|CornerRadius=0.0475mm|HoleSize=0mm|Usage=FLASHONLY|Rotation=90.000|XOffset=0mm|YOffset=0mm|HoleType=Round|Shape=RoundedRectangle|*
%AMROUNDEDRECTD26*
21,1,1.5000,0.2850,0,0,90.0*
21,1,1.4050,0.3800,0,0,90.0*
1,1,0.0950,0.1425,0.7025*
1,1,0.0950,0.1425,-0.7025*
1,1,0.0950,-0.1425,-0.7025*
1,1,0.0950,-0.1425,0.7025*
%
%ADD26ROUNDEDRECTD26*%
%ADD27R,0.8000X0.8000*%
%ADD28R,1.3000X0.9000*%
G04:AMPARAMS|DCode=29|XSize=1.55mm|YSize=0.35mm|CornerRadius=0.0438mm|HoleSize=0mm|Usage=FLASHONLY|Rotation=180.000|XOffset=0mm|YOffset=0mm|HoleType=Round|Shape=RoundedRectangle|*
%AMROUNDEDRECTD29*
21,1,1.5500,0.2625,0,0,180.0*
21,1,1.4625,0.3500,0,0,180.0*
1,1,0.0875,-0.7313,0.1313*
1,1,0.0875,0.7313,0.1313*
1,1,0.0875,0.7313,-0.1313*
1,1,0.0875,-0.7313,-0.1313*
%
%ADD29ROUNDEDRECTD29*%
%ADD30R,0.7000X1.3000*%
%ADD31R,1.4400X1.8200*%
G04:AMPARAMS|DCode=32|XSize=0.7mm|YSize=0.43mm|CornerRadius=0.1075mm|HoleSize=0mm|Usage=FLASHONLY|Rotation=0.000|XOffset=0mm|YOffset=0mm|HoleType=Round|Shape=RoundedRectangle|*
%AMROUNDEDRECTD32*
21,1,0.7000,0.2150,0,0,0.0*
21,1,0.4850,0.4300,0,0,0.0*
1,1,0.2150,0.2425,-0.1075*
1,1,0.2150,-0.2425,-0.1075*
1,1,0.2150,-0.2425,0.1075*
1,1,0.2150,0.2425,0.1075*
%
%ADD32ROUNDEDRECTD32*%
%ADD33R,0.9000X1.3000*%
%ADD60C,0.4000*%
%ADD61C,0.8000*%
%ADD62C,0.5500*%
%ADD63C,1.0000*%
%ADD64C,0.7000*%
%ADD65C,0.4500*%
%ADD66C,0.6000*%
%ADD67C,2.8000*%
%ADD68C,2.5000*%
G04:AMPARAMS|DCode=69|XSize=2.54mm|YSize=2.3mm|CornerRadius=0.575mm|HoleSize=0mm|Usage=FLASHONLY|Rotation=180.000|XOffset=0mm|YOffset=0mm|HoleType=Round|Shape=RoundedRectangle|*
%AMROUNDEDRECTD69*
21,1,2.5400,1.1500,0,0,180.0*
21,1,1.3900,2.3000,0,0,180.0*
1,1,1.1500,-0.6950,0.5750*
1,1,1.1500,0.6950,0.5750*
1,1,1.1500,0.6950,-0.5750*
1,1,1.1500,-0.6950,-0.5750*
%
%ADD69ROUNDEDRECTD69*%
%ADD70O,2.5400X2.3000*%
%ADD71R,2.0000X1.6000*%
%ADD72O,2.0000X1.6000*%
%ADD73R,1.9100X1.9100*%
%ADD74C,1.9100*%
%ADD75R,1.6000X2.0000*%
%ADD76O,1.6000X2.0000*%
%ADD77R,2.4000X2.4000*%
%ADD78C,2.4000*%
%ADD79C,0.6000*%
D16*
X287808Y136365D02*
Y137000D01*
X288102Y136071D02*
X288948D01*
X287808Y136365D02*
X288102Y136071D01*
X288948D02*
X311090Y113929D01*
Y113294D02*
X311384Y113000D01*
X311090Y113294D02*
Y113929D01*
X365264Y153700D02*
X365700D01*
X362250Y141700D02*
Y150686D01*
X365700Y153700D02*
X370000Y158000D01*
X362250Y150686D02*
X365264Y153700D01*
X370000Y158000D02*
X374657D01*
X367000Y48000D02*
X393000Y74000D01*
Y122393D02*
X393500Y122893D01*
X393000Y74000D02*
Y122393D01*
X374657Y158000D02*
X393500Y139157D01*
Y122893D02*
Y139157D01*
X356164Y296103D02*
X356267Y296000D01*
X363000D01*
X207450Y158550D02*
X213000D01*
X277500Y181215D02*
Y253900D01*
X284500Y260900D02*
X290000D01*
X290500Y261400D01*
X277500Y253900D02*
X284500Y260900D01*
X349250Y141700D02*
Y160343D01*
X173929Y48000D02*
X367000D01*
X171000Y50929D02*
X173929Y48000D01*
X171000Y50929D02*
Y85500D01*
X389296Y184400D02*
Y219767D01*
X389500Y182900D02*
Y184196D01*
X389296Y184400D02*
X389500Y184196D01*
X389296Y219767D02*
X393529Y224000D01*
X331071Y83000D02*
X334000Y80071D01*
Y69929D02*
X336929Y67000D01*
X362350Y69929D02*
Y78318D01*
X359421Y67000D02*
X362350Y69929D01*
X336929Y67000D02*
X359421D01*
X334000Y69929D02*
Y80071D01*
X311192Y83000D02*
X331071D01*
X393529Y224000D02*
X420000D01*
X237700Y317000D02*
X247000D01*
X256000Y308000D01*
X277500Y181215D02*
X282500Y176215D01*
X280514Y131707D02*
Y152968D01*
X282500Y154954D02*
Y176215D01*
X280514Y152968D02*
X282500Y154954D01*
X280514Y131707D02*
X287000Y125221D01*
X349250Y122000D02*
Y141700D01*
X290500Y248700D02*
X340000D01*
X323549Y224497D02*
X323820D01*
X325017Y223300D02*
X340000D01*
X323820Y224497D02*
X325017Y223300D01*
X161000Y95500D02*
X171000Y85500D01*
X158000Y95500D02*
X161000D01*
X313121Y137929D02*
X344809Y169617D01*
Y170809D02*
X345000Y171000D01*
X344809Y169617D02*
Y170809D01*
X356771Y272500D02*
X368450D01*
X356271Y272000D02*
X356771Y272500D01*
X356000Y272000D02*
X356271D01*
X312486Y137929D02*
X313121D01*
X312192Y137635D02*
X312486Y137929D01*
X312192Y137000D02*
Y137635D01*
X287000Y113000D02*
Y125221D01*
X311192Y83000D02*
X311288Y83096D01*
Y112904D01*
X311384Y113000D01*
X179750Y323500D02*
X180300D01*
X179000Y324250D02*
Y337000D01*
Y324250D02*
X179750Y323500D01*
X359000Y320071D02*
X363071Y316000D01*
X359000Y320071D02*
Y352050D01*
X355000Y353050D02*
X358000D01*
X359000Y352050D01*
X349250Y84300D02*
X355750D01*
X260775Y368275D02*
X279225D01*
X279500Y368550D01*
X260500Y368000D02*
X260775Y368275D01*
X218360Y368000D02*
X241500D01*
D19*
X290500Y185200D02*
D03*
Y197900D02*
D03*
Y210600D02*
D03*
Y223300D02*
D03*
X290500Y236000D02*
D03*
X290500Y248700D02*
D03*
Y261400D02*
D03*
X340000D02*
D03*
Y248700D02*
D03*
Y236000D02*
D03*
X340000Y223300D02*
D03*
X340000Y210600D02*
D03*
Y197900D02*
D03*
Y185200D02*
D03*
D20*
X355000Y353050D02*
D03*
Y372050D02*
D03*
X142000Y268000D02*
D03*
Y249000D02*
D03*
X143000Y199000D02*
D03*
Y218000D02*
D03*
X438000Y372050D02*
D03*
Y353050D02*
D03*
X382000Y372050D02*
D03*
Y353050D02*
D03*
X431000Y131000D02*
D03*
Y112000D02*
D03*
X494000Y112500D02*
D03*
Y131500D02*
D03*
X422000Y323000D02*
D03*
Y304000D02*
D03*
X88490Y322500D02*
D03*
Y303500D02*
D03*
X174000Y236500D02*
D03*
Y255500D02*
D03*
X158000Y95500D02*
D03*
Y76500D02*
D03*
X189000Y96500D02*
D03*
Y77500D02*
D03*
X130000Y97500D02*
D03*
Y78500D02*
D03*
D21*
X496200Y173200D02*
D03*
X420000D02*
D03*
X496200Y224000D02*
D03*
Y198600D02*
D03*
X420000D02*
D03*
Y224000D02*
D03*
D22*
X312192Y137000D02*
D03*
X287808D02*
D03*
X286808Y83000D02*
D03*
X311192D02*
D03*
X287000Y113000D02*
D03*
X311384D02*
D03*
D23*
X207450Y247450D02*
D03*
Y234750D02*
D03*
Y222050D02*
D03*
Y209350D02*
D03*
Y196650D02*
D03*
Y183950D02*
D03*
Y171250D02*
D03*
Y158550D02*
D03*
X256550Y247450D02*
D03*
Y234750D02*
D03*
Y222050D02*
D03*
Y209350D02*
D03*
Y196650D02*
D03*
Y183950D02*
D03*
Y171250D02*
D03*
Y158550D02*
D03*
D24*
X267500Y319000D02*
D03*
X274000D02*
D03*
X280500D02*
D03*
Y299600D02*
D03*
X274000D02*
D03*
X267500D02*
D03*
X365500Y296600D02*
D03*
X372000D02*
D03*
X378500D02*
D03*
Y316000D02*
D03*
X372000D02*
D03*
X365500D02*
D03*
D25*
X368450Y253500D02*
D03*
X368450Y272500D02*
D03*
X393550D02*
D03*
X393550Y263000D02*
D03*
X393550Y253500D02*
D03*
D26*
X349250Y141700D02*
D03*
X355750D02*
D03*
X362250D02*
D03*
X368750D02*
D03*
Y84300D02*
D03*
X362250D02*
D03*
X355750D02*
D03*
X349250D02*
D03*
D27*
X380000Y203000D02*
D03*
X389500Y182900D02*
D03*
X370500D02*
D03*
D28*
X144000Y139000D02*
D03*
Y158000D02*
D03*
X410000Y371540D02*
D03*
Y352540D02*
D03*
X462000Y130500D02*
D03*
Y111500D02*
D03*
D29*
X180300Y284500D02*
D03*
Y291000D02*
D03*
Y297500D02*
D03*
Y304000D02*
D03*
Y310500D02*
D03*
Y317000D02*
D03*
Y323500D02*
D03*
X237700D02*
D03*
Y317000D02*
D03*
Y310500D02*
D03*
Y304000D02*
D03*
Y297500D02*
D03*
Y291000D02*
D03*
Y284500D02*
D03*
D30*
X333500Y369000D02*
D03*
X314500D02*
D03*
X279500Y368550D02*
D03*
X298500D02*
D03*
X260500Y368000D02*
D03*
X241500D02*
D03*
X145500Y369000D02*
D03*
X164500D02*
D03*
X81500Y368550D02*
D03*
X62500D02*
D03*
X241000Y81000D02*
D03*
X222000D02*
D03*
X332500Y309000D02*
D03*
X313500D02*
D03*
X103990Y265000D02*
D03*
X84990D02*
D03*
X103500Y368550D02*
D03*
X122500D02*
D03*
X84990Y181000D02*
D03*
X103990D02*
D03*
X85500Y131000D02*
D03*
X104500D02*
D03*
X87500Y82000D02*
D03*
X106500D02*
D03*
D31*
X191640Y368000D02*
D03*
X218360D02*
D03*
D32*
X129300Y318500D02*
D03*
Y312000D02*
D03*
Y305500D02*
D03*
X148700D02*
D03*
Y312000D02*
D03*
Y318500D02*
D03*
D33*
X104500Y216000D02*
D03*
X85500D02*
D03*
D60*
X369460Y283383D02*
X378350Y292273D01*
Y296450D02*
X378500Y296600D01*
X378350Y292273D02*
Y296450D01*
X368000Y283000D02*
X368383Y283383D01*
X369460D01*
X242000Y222000D02*
X242025Y222025D01*
X256525D02*
X256550Y222050D01*
X242025Y222025D02*
X256525D01*
X222600Y310500D02*
X237700D01*
X212242Y300141D02*
X222600Y310500D01*
X224000Y302000D02*
X224541D01*
X203000Y287000D02*
X212242Y296242D01*
X226291Y303750D02*
X237450D01*
X224541Y302000D02*
X226291Y303750D01*
X212242Y296242D02*
Y300141D01*
X274000Y299600D02*
X274150Y299750D01*
Y307609D01*
X275000Y308459D02*
Y309000D01*
X274150Y307609D02*
X275000Y308459D01*
X300000Y303985D02*
Y332000D01*
X287453Y304178D02*
X291000D01*
X286562Y293000D02*
X289015D01*
X300000Y303985D01*
X281084Y297809D02*
X287453Y304178D01*
X251500Y323500D02*
X267500Y307500D01*
Y299600D02*
Y307500D01*
X364451Y164938D02*
X364805D01*
X355750Y156237D02*
X364451Y164938D01*
X237700Y330700D02*
X245000Y338000D01*
X205740Y352000D02*
X240900D01*
X237700Y323500D02*
Y330700D01*
X253483Y334367D02*
Y339417D01*
X240900Y352000D02*
X253483Y339417D01*
X384617Y125383D02*
X385000Y125000D01*
X379667Y125383D02*
X384617D01*
X368850Y136200D02*
X379667Y125383D01*
X354500Y306000D02*
X369657D01*
X351500Y309000D02*
X354500Y306000D01*
X371850Y296750D02*
Y303807D01*
X369657Y306000D02*
X371850Y303807D01*
X232000Y152000D02*
Y201957D01*
X241500Y365000D02*
X272165Y334335D01*
X273650Y321646D02*
Y323527D01*
X272165Y325012D02*
X273650Y323527D01*
Y321646D02*
X273850Y321446D01*
Y319150D02*
Y321446D01*
X272165Y325012D02*
Y334335D01*
X253483Y334367D02*
X267350Y320500D01*
Y319150D02*
X267500Y319000D01*
X267350Y319150D02*
Y320500D01*
X273850Y319150D02*
X274000Y319000D01*
X354785Y341827D02*
Y343786D01*
X352500Y339541D02*
X354785Y341827D01*
X352500Y339000D02*
Y339541D01*
X354785Y343786D02*
X355000Y344000D01*
Y353050D01*
X279662Y286100D02*
X286562Y293000D01*
X282148Y280100D02*
X289048Y287000D01*
X277886Y280100D02*
X282148D01*
X274401Y285100D02*
X275401Y286100D01*
X276886Y279100D02*
X277886Y280100D01*
X275401Y286100D02*
X279662D01*
X289048Y287000D02*
X294500D01*
X237950Y290750D02*
X251058D01*
X237700Y291000D02*
X237950Y290750D01*
X272416Y291600D02*
X272916Y292100D01*
X259400Y291600D02*
X272416D01*
X251058Y290750D02*
X256708Y285100D01*
X277177Y292100D02*
X281084Y296007D01*
Y297809D01*
X272916Y292100D02*
X277177D01*
X256708Y285100D02*
X274401D01*
X404000Y262657D02*
Y277842D01*
X410000Y283842D01*
Y328050D01*
X404000Y262657D02*
X404657Y262000D01*
X248600Y279100D02*
X276886D01*
X294500Y287000D02*
X313500Y306000D01*
X243200Y284500D02*
X248600Y279100D01*
X237700Y284500D02*
X243200D01*
X253500Y297500D02*
X259400Y291600D01*
X410000Y328050D02*
X435000Y353050D01*
X355750Y141700D02*
Y156237D01*
X259000Y63000D02*
X315000D01*
X423617Y364157D02*
Y370617D01*
X412000Y352540D02*
X423617Y364157D01*
Y370617D02*
X424000Y371000D01*
X410000Y352540D02*
X412000D01*
X409000Y257000D02*
Y257541D01*
X404657Y261884D02*
Y262000D01*
Y261884D02*
X409000Y257541D01*
X378650Y309729D02*
X381500Y306879D01*
X378650Y309729D02*
Y315850D01*
X371850Y296750D02*
X372000Y296600D01*
X237700Y323500D02*
X251500D01*
X384541Y252000D02*
X385091Y252550D01*
X392600D02*
X393550Y253500D01*
X385091Y252550D02*
X392600D01*
X384000Y252000D02*
X384541D01*
X381500Y306338D02*
Y306879D01*
X378500Y316000D02*
X378650Y315850D01*
X238000Y173593D02*
X240343Y171250D01*
X238000Y173593D02*
Y183026D01*
X239000Y184026D01*
X217607Y216350D02*
X232000Y201957D01*
X240343Y171250D02*
X256550D01*
X239000Y184026D02*
Y194000D01*
X237700Y297500D02*
X253500D01*
X213950Y282657D02*
X216293Y285000D01*
X213950Y248450D02*
Y282657D01*
X216293Y285000D02*
X223700D01*
X223950Y284750D02*
X237450D01*
X223700Y285000D02*
X223950Y284750D01*
X237450D02*
X237700Y284500D01*
X156657Y312000D02*
X159000Y309657D01*
Y290343D02*
Y309657D01*
X155657Y287000D02*
X159000Y290343D01*
X148700Y312000D02*
X156657D01*
X370500Y182900D02*
X378617Y174783D01*
Y169383D02*
Y174783D01*
Y169383D02*
X379000Y169000D01*
X241000Y81000D02*
X259000Y63000D01*
X393550Y263000D02*
X394500Y262050D01*
X401293D01*
X401343Y262000D01*
X404657D01*
X435000Y353050D02*
X438000D01*
X301904Y235000D02*
X304781Y232123D01*
X305322D01*
X290500Y236000D02*
X291500Y235000D01*
X301904D01*
X237450Y303750D02*
X237700Y304000D01*
X326383Y177083D02*
X334500Y185200D01*
X326383Y175383D02*
Y177083D01*
X334500Y185200D02*
X340000D01*
X326000Y175000D02*
X326383Y175383D01*
X318000Y181400D02*
X334500Y197900D01*
X318000Y166000D02*
Y181400D01*
X334500Y197900D02*
X340000D01*
X313250Y309250D02*
Y324750D01*
X313000Y325000D02*
X313250Y324750D01*
Y309250D02*
X313500Y309000D01*
Y306000D02*
Y309000D01*
X300000Y332000D02*
X307000Y339000D01*
X133000Y296000D02*
X135000Y294000D01*
X147000D01*
X106343Y287000D02*
X155657D01*
X210950Y222050D02*
X216650Y216350D01*
X207450Y222050D02*
X210950D01*
X216650Y216350D02*
X217607D01*
X181227Y190773D02*
X188050Y183950D01*
X181227Y190773D02*
X183346D01*
X188050Y183950D02*
X207450D01*
X200200Y236500D02*
X201950Y234750D01*
X207450D01*
X174000Y236500D02*
X200200D01*
X207450Y247450D02*
X212950D01*
X213950Y248450D01*
X291000Y304178D02*
Y338000D01*
X332500Y309000D02*
X351500D01*
X307000Y339000D02*
Y358500D01*
X314500Y366000D02*
Y369000D01*
X307000Y358500D02*
X314500Y366000D01*
X333500Y352500D02*
Y369000D01*
X333000Y352000D02*
Y354000D01*
Y352000D02*
X333500Y352500D01*
X191640Y366100D02*
X205740Y352000D01*
X191640Y366100D02*
Y368000D01*
X241500Y365000D02*
Y368000D01*
X362250Y79250D02*
Y84300D01*
X291000Y338000D02*
X298500Y345500D01*
Y368550D01*
X180300Y317000D02*
X197000D01*
X370000Y362000D02*
X370050D01*
X379000Y353050D02*
X382000D01*
X370050Y362000D02*
X379000Y353050D01*
X397383Y372617D02*
X408923D01*
X410000Y371540D01*
X397000Y373000D02*
X397383Y372617D01*
X377500Y351550D02*
X379000Y353050D01*
X377500Y348550D02*
Y351550D01*
X379000Y353050D02*
X382000D01*
X372000Y343050D02*
X377500Y348550D01*
X372000Y316000D02*
Y343050D01*
X363071Y316000D02*
X365500D01*
X222000Y81000D02*
X222617Y81617D01*
Y100617D01*
X223000Y101000D01*
X81000Y352000D02*
Y368050D01*
Y352000D02*
X121000Y312000D01*
X129300D01*
X124200Y343000D02*
X147200Y320000D01*
X101000Y345343D02*
Y363050D01*
X103343Y343000D02*
X124200D01*
X101000Y345343D02*
X103343Y343000D01*
X147350Y318500D02*
X148700D01*
X147200Y318650D02*
Y320000D01*
Y318650D02*
X147350Y318500D01*
X138000Y307843D02*
Y313977D01*
X129450Y318350D02*
X133627D01*
X138000Y313977D01*
X147383Y294383D02*
Y305467D01*
X147000Y294000D02*
X147383Y294383D01*
X147350Y305500D02*
X147383Y305467D01*
X103990Y284647D02*
X106343Y287000D01*
X147350Y305500D02*
X148700D01*
X140343D02*
X147350D01*
X142000Y268000D02*
Y280000D01*
X103500Y365550D02*
Y368550D01*
X101000Y363050D02*
X103500Y365550D01*
X88490Y303500D02*
X91490D01*
X93490Y305500D02*
X129300D01*
X91490Y303500D02*
X93490Y305500D01*
X129300Y318500D02*
X129450Y318350D01*
X138000Y307843D02*
X140343Y305500D01*
X103990Y265000D02*
Y284647D01*
X190640Y369000D02*
X191640Y368000D01*
X164500Y369000D02*
X190640D01*
X81000Y368050D02*
X81500Y368550D01*
D61*
X36165Y246600D02*
X44565Y255000D01*
X48000D01*
X32000Y246600D02*
X36165D01*
X412000Y271000D02*
X415000D01*
X433000Y253000D02*
X461000D01*
X415000Y271000D02*
X433000Y253000D01*
X72000Y33000D02*
X106000Y67000D01*
Y81500D02*
X106500Y82000D01*
X106000Y67000D02*
Y81500D01*
X72000Y30000D02*
Y33000D01*
X106500Y82000D02*
Y103500D01*
X142000Y139000D01*
X130000Y97500D02*
Y110858D01*
X142000Y139000D02*
X144000D01*
X161000D01*
X144000Y158000D02*
X168000D01*
X198000Y128000D01*
X252000D01*
X306900Y197900D02*
X307000Y198000D01*
X290500Y197900D02*
X306900D01*
X316049Y233445D02*
X317547D01*
X320102Y236000D02*
X340000D01*
X317547Y233445D02*
X320102Y236000D01*
X185000Y171000D02*
X207200D01*
X207450Y171250D01*
X125000Y187868D02*
Y199142D01*
X122000Y184868D02*
X125000Y187868D01*
X123571Y200571D02*
X125000Y199142D01*
X122000Y167686D02*
Y184868D01*
X123571Y200571D02*
X141000Y218000D01*
X115000Y192010D02*
Y195000D01*
X103990Y181000D02*
X115000Y192010D01*
X141000Y218000D02*
X143000D01*
X117314Y163000D02*
X122000Y167686D01*
X222000Y81000D02*
Y83000D01*
X189000Y96500D02*
X208500D01*
X222000Y83000D01*
X272686Y83000D02*
X286808D01*
X268000Y87686D02*
X272686Y83000D01*
X268000Y87686D02*
Y112000D01*
X252000Y128000D02*
X254996Y125004D01*
X268000Y112000D01*
X442000Y123000D02*
X453500D01*
X431000Y112000D02*
X442000Y123000D01*
X453500D02*
X460500Y130000D01*
X85100Y77600D02*
X87500Y80000D01*
Y82000D01*
X32000Y77600D02*
X85100D01*
X85500Y86000D02*
X87500Y84000D01*
Y82000D02*
Y84000D01*
X85500Y86000D02*
Y131000D01*
X129000Y157500D02*
X143500D01*
X104500Y131000D02*
Y133000D01*
X129000Y157500D01*
X143500D02*
X144000Y158000D01*
X84490Y167686D02*
Y178804D01*
X89176Y163000D02*
X117314D01*
X84490Y167686D02*
X89176Y163000D01*
X62000Y157000D02*
Y172314D01*
X84990Y179304D02*
Y181000D01*
X84490Y178804D02*
X84990Y179304D01*
X68490Y178804D02*
X84490D01*
X62000Y172314D02*
X68490Y178804D01*
X50600Y145600D02*
X62000Y157000D01*
X32000Y145600D02*
X50600D01*
X103990Y183000D02*
X104500Y183510D01*
Y216000D01*
X103990Y181000D02*
Y183000D01*
X84990Y265000D02*
Y267000D01*
X32000Y272000D02*
X79990D01*
X84990Y267000D01*
X260000Y369050D02*
X260775Y368275D01*
X260000Y386000D02*
X260000Y386000D01*
Y369050D02*
Y386000D01*
D62*
X298664Y137234D02*
X313898Y122000D01*
X349250D01*
X298664Y137234D02*
Y139438D01*
X290000Y148102D02*
Y184700D01*
Y148102D02*
X298664Y139438D01*
X360000Y171093D02*
Y200071D01*
X349250Y160343D02*
X360000Y171093D01*
X370000Y243000D02*
X502000D01*
X390500Y302893D02*
Y330176D01*
X395000Y334676D02*
Y362050D01*
X390500Y330176D02*
X395000Y334676D01*
X385000Y372050D02*
X395000Y362050D01*
X390500Y288500D02*
Y302893D01*
X381500Y279500D02*
X390500Y288500D01*
X390617Y309107D02*
Y309606D01*
X381500Y263450D02*
Y279500D01*
X371550Y253500D02*
X381500Y263450D01*
X370000Y239929D02*
X380000Y229929D01*
X390000Y302393D02*
X390500Y302893D01*
X380000Y203000D02*
Y229929D01*
X290500Y210600D02*
X314071D01*
X317000Y191000D02*
Y207671D01*
X314071Y210600D02*
X317000Y207671D01*
X311200Y185200D02*
X317000Y191000D01*
X290500Y185200D02*
X311200D01*
X349250Y84300D02*
Y122000D01*
X290000Y184700D02*
X290500Y185200D01*
X290500D01*
X355000Y372050D02*
Y386000D01*
X435500Y372550D02*
Y378814D01*
X382500Y372550D02*
Y376814D01*
X430314Y384000D02*
X435500Y378814D01*
X355000Y372050D02*
X382000D01*
X435500Y372550D02*
X437500D01*
X382000Y372050D02*
X382500Y372550D01*
Y376814D02*
X389686Y384000D01*
X437500Y372550D02*
X438000Y372050D01*
X389686Y384000D02*
X430314D01*
X370000Y239929D02*
Y253050D01*
X368450Y253500D02*
X371550D01*
X362929Y203000D02*
X380000D01*
X360000Y200071D02*
X362929Y203000D01*
D63*
X507142Y267000D02*
X518000Y256142D01*
Y187558D02*
Y256142D01*
X507142Y176700D02*
X518000Y187558D01*
X422000Y279556D02*
X434556Y267000D01*
X422000Y279556D02*
Y304000D01*
X434556Y267000D02*
X507142D01*
X469000Y231000D02*
X473000Y227000D01*
Y211000D02*
Y227000D01*
X460275Y160275D02*
Y168175D01*
X431000Y131000D02*
X460275Y160275D01*
Y168175D02*
X488050Y195950D01*
X494000Y94000D02*
Y112500D01*
X499700Y176700D02*
X507142D01*
X495100Y172100D02*
X499700Y176700D01*
X473000Y211000D02*
X488050Y195950D01*
X445000Y302858D02*
Y316142D01*
X423000Y322000D02*
X439142D01*
X445000Y316142D01*
X422000Y323000D02*
X423000Y322000D01*
X460401Y298259D02*
X472259D01*
X474000Y300000D01*
X459142Y297000D02*
X460401Y298259D01*
X450858Y297000D02*
X459142D01*
X445000Y302858D02*
X450858Y297000D01*
X494000Y131500D02*
X495100Y132600D01*
Y172100D01*
X493500Y112000D02*
X494000Y112500D01*
X462000Y111500D02*
X462500Y112000D01*
X493500D01*
D64*
X401101Y151840D02*
X402758Y153497D01*
X412174D01*
X401101Y151840D02*
X401500Y151440D01*
X401101Y151840D02*
Y183701D01*
X416000Y198600D01*
X401000Y119080D02*
X401500Y119580D01*
Y151440D01*
X401000Y107272D02*
Y119080D01*
X421600Y197000D02*
X440000D01*
X441000Y196000D01*
X440000Y197000D02*
X457000D01*
X420000Y198600D02*
X421600Y197000D01*
X401000Y107272D02*
X426272Y82000D01*
X416000Y198600D02*
X420000D01*
X426272Y82000D02*
X508000D01*
X521000Y95000D02*
Y160000D01*
X508000Y82000D02*
X521000Y95000D01*
Y160000D02*
X533000Y172000D01*
Y242000D01*
X541400Y250400D01*
X561000D01*
X147686Y179314D02*
Y198000D01*
Y179314D02*
X153000Y174000D01*
X32000Y340180D02*
X32180Y340000D01*
X63071D02*
X66000Y337071D01*
Y325429D02*
Y337071D01*
X32180Y340000D02*
X63071D01*
X68929Y322500D02*
X88490D01*
X66000Y325429D02*
X68929Y322500D01*
D65*
X365400Y296000D02*
X365500Y296100D01*
Y296600D01*
X363000Y296000D02*
X365400D01*
X280500Y319000D02*
Y329500D01*
X279165Y330835D02*
X280500Y329500D01*
D66*
X154314Y198000D02*
X155314Y199000D01*
X147686Y198000D02*
X154314D01*
X279165Y330835D02*
Y349835D01*
X323000Y295343D02*
Y328657D01*
X340000Y279939D02*
X356164Y296103D01*
X342034D02*
X356164D01*
X338932Y293000D02*
X342034Y296103D01*
X343586Y378414D02*
X343586D01*
X325343Y293000D02*
X338932D01*
X323000Y295343D02*
X325343Y293000D01*
X270050Y175950D02*
X274000Y172000D01*
X267121Y179250D02*
X270050Y176321D01*
X266750Y179250D02*
X267121D01*
X274000Y160000D02*
Y172000D01*
X256550Y183950D02*
X262050D01*
X266750Y179250D01*
X270050Y175950D02*
Y176321D01*
X221000Y147515D02*
Y193135D01*
X207450Y196650D02*
X217485D01*
X221000Y147515D02*
X224515Y144000D01*
X217485Y196650D02*
X221000Y193135D01*
X224515Y144000D02*
X254207D01*
X335000Y387000D02*
X343586Y378414D01*
X344000Y335101D02*
Y346272D01*
X343000Y347272D02*
Y377828D01*
X325343Y331000D02*
X339899D01*
X344000Y335101D01*
X343000Y347272D02*
X344000Y346272D01*
X343000Y377828D02*
X343586Y378414D01*
X256550Y247450D02*
X281200Y272100D01*
X285461D01*
X292361Y279000D01*
X236686Y247450D02*
X256550D01*
X292361Y279000D02*
X308000D01*
X339062D01*
X392626Y276367D02*
X398942Y282684D01*
X339062Y279000D02*
X340000Y279939D01*
X268923Y349835D02*
X279165D01*
X282000Y347000D01*
X186000Y55500D02*
Y77000D01*
X282000Y347000D02*
X289000Y354000D01*
Y384657D01*
X134000Y15000D02*
X141000Y22000D01*
X130000Y59953D02*
Y78500D01*
X122800Y30000D02*
Y52753D01*
X141000Y59500D02*
X154500Y73000D01*
X122800Y52753D02*
X130000Y59953D01*
X141000Y22000D02*
Y59500D01*
X59600Y15000D02*
X134000D01*
X323000Y328657D02*
X325343Y331000D01*
X289000Y384657D02*
X291343Y387000D01*
X335000D01*
X340000Y261400D02*
Y279939D01*
X254207Y144000D02*
X256550Y146343D01*
Y158550D01*
X232000Y242764D02*
X236686Y247450D01*
X232000Y220000D02*
Y242764D01*
X255550Y210350D02*
X256550Y209350D01*
X241650Y210350D02*
X255550D01*
X232000Y220000D02*
X241650Y210350D01*
X256550Y196650D02*
Y209350D01*
Y183950D02*
Y196650D01*
Y158550D02*
X272550D01*
X274000Y160000D01*
X155314Y199000D02*
X159000Y202686D01*
X155314Y199000D02*
X170000D01*
X143000D02*
X155314D01*
X180350Y209350D02*
X207450D01*
X170000Y199000D02*
X180350Y209350D01*
X207450Y196650D02*
Y209350D01*
X143500Y198500D02*
X147186D01*
X147686Y198000D01*
X159000Y202686D02*
Y243814D01*
X143000Y199000D02*
X143500Y198500D01*
X154314Y248500D02*
X159000Y243814D01*
X142500Y248500D02*
X154314D01*
X142000Y249000D02*
X142500Y248500D01*
X85500Y218000D02*
X116500Y249000D01*
X142000D01*
X85500Y216000D02*
Y218000D01*
X32000Y221200D02*
X82300D01*
X85500Y218000D01*
X167000Y285629D02*
Y316000D01*
Y285629D02*
X169929Y282700D01*
X174000D01*
X145500Y337500D02*
Y369000D01*
Y337500D02*
X167000Y316000D01*
X174000Y255500D02*
Y282700D01*
X186000Y77000D02*
X186500Y77500D01*
X189000D01*
X154500Y73000D02*
Y76000D01*
X155000Y76500D02*
X158000D01*
X154500Y76000D02*
X155000Y76500D01*
X46600Y28000D02*
X59600Y15000D01*
X46600Y28000D02*
Y30000D01*
X122500Y385500D02*
X123000Y386000D01*
X122500Y368550D02*
Y385500D01*
Y368550D02*
X122725Y368775D01*
X145275D01*
X145500Y369000D01*
X62000Y365580D02*
X62500Y366080D01*
Y368550D01*
X32000Y365580D02*
X62000D01*
D67*
X591000Y124530D02*
Y266200D01*
X557000Y300200D02*
X591000Y266200D01*
X559000Y92530D02*
X591000Y124530D01*
X552000Y346000D02*
X557000Y351000D01*
D68*
X475450Y326950D02*
X532950D01*
X474000Y325500D02*
X475450Y326950D01*
X532950D02*
X552000Y346000D01*
D69*
X559000Y42530D02*
D03*
D70*
Y92530D02*
D03*
Y142530D02*
D03*
D71*
X32000Y103000D02*
D03*
X561000Y225000D02*
D03*
X32000Y171000D02*
D03*
Y365580D02*
D03*
Y272000D02*
D03*
D72*
Y77600D02*
D03*
X561000Y250400D02*
D03*
X32000Y145600D02*
D03*
Y314780D02*
D03*
Y340180D02*
D03*
Y221200D02*
D03*
Y246600D02*
D03*
D73*
X474000Y351000D02*
D03*
D74*
X474000Y325500D02*
D03*
Y300000D02*
D03*
D75*
X46600Y30000D02*
D03*
D76*
X72000D02*
D03*
X122800D02*
D03*
X97400D02*
D03*
D77*
X557000Y351000D02*
D03*
D78*
Y300200D02*
D03*
D79*
X368000Y283000D02*
D03*
X242000Y222000D02*
D03*
X224000Y302000D02*
D03*
X275000Y309000D02*
D03*
X291000Y304885D02*
D03*
X48000Y255000D02*
D03*
X364805Y164938D02*
D03*
X412174Y153497D02*
D03*
X245000Y338000D02*
D03*
X385000Y125000D02*
D03*
X356164Y296103D02*
D03*
X213000Y158550D02*
D03*
X232000Y152000D02*
D03*
X352500Y339000D02*
D03*
X412000Y271000D02*
D03*
X308000Y279000D02*
D03*
X268923Y349835D02*
D03*
X469000Y231000D02*
D03*
X457000Y197000D02*
D03*
X461000Y253000D02*
D03*
X398942Y282684D02*
D03*
X186000Y55500D02*
D03*
X494000Y94000D02*
D03*
X502000Y243000D02*
D03*
X315000Y63000D02*
D03*
X424000Y371000D02*
D03*
X409000Y257000D02*
D03*
X256000Y308000D02*
D03*
X384000Y252000D02*
D03*
X381500Y306338D02*
D03*
X130000Y110858D02*
D03*
X153000Y174000D02*
D03*
X161000Y139000D02*
D03*
X307000Y198000D02*
D03*
X290000Y160000D02*
D03*
X239000Y194000D02*
D03*
X323549Y224497D02*
D03*
X316049Y233445D02*
D03*
X203000Y287000D02*
D03*
X379000Y169000D02*
D03*
X305322Y232123D02*
D03*
X326000Y175000D02*
D03*
X345000Y171000D02*
D03*
X313000Y325000D02*
D03*
X133000Y296000D02*
D03*
X318000Y166000D02*
D03*
X183346Y190773D02*
D03*
X333000Y354000D02*
D03*
X355000Y386000D02*
D03*
X356000Y272000D02*
D03*
X197000Y317000D02*
D03*
X179000Y337000D02*
D03*
X185000Y171000D02*
D03*
X115000Y195000D02*
D03*
X370000Y362000D02*
D03*
X397000Y373000D02*
D03*
X223000Y101000D02*
D03*
X147000Y294000D02*
D03*
X142000Y280000D02*
D03*
X260000Y386000D02*
D03*
X123000D02*
D03*
M02*
