G04*
G04 #@! TF.GenerationSoftware,Altium Limited,Altium Designer,22.5.1 (42)*
G04*
G04 Layer_Color=255*
%FSLAX44Y44*%
%MOMM*%
G71*
G04*
G04 #@! TF.SameCoordinates,7BE4DF7C-7C26-4D94-8E65-31FE19049D94*
G04*
G04*
G04 #@! TF.FilePolarity,Positive*
G04*
G01*
G75*
G04:AMPARAMS|DCode=19|XSize=1.7mm|YSize=0.6mm|CornerRadius=0.15mm|HoleSize=0mm|Usage=FLASHONLY|Rotation=180.000|XOffset=0mm|YOffset=0mm|HoleType=Round|Shape=RoundedRectangle|*
%AMROUNDEDRECTD19*
21,1,1.7000,0.3000,0,0,180.0*
21,1,1.4000,0.6000,0,0,180.0*
1,1,0.3000,-0.7000,0.1500*
1,1,0.3000,0.7000,0.1500*
1,1,0.3000,0.7000,-0.1500*
1,1,0.3000,-0.7000,-0.1500*
%
%ADD19ROUNDEDRECTD19*%
%ADD20R,1.3000X0.7000*%
%ADD21R,2.5000X1.7000*%
%ADD22R,0.5588X0.6858*%
%ADD23R,1.7000X0.6000*%
G04:AMPARAMS|DCode=24|XSize=0.7mm|YSize=0.43mm|CornerRadius=0.1075mm|HoleSize=0mm|Usage=FLASHONLY|Rotation=90.000|XOffset=0mm|YOffset=0mm|HoleType=Round|Shape=RoundedRectangle|*
%AMROUNDEDRECTD24*
21,1,0.7000,0.2150,0,0,90.0*
21,1,0.4850,0.4300,0,0,90.0*
1,1,0.2150,0.1075,0.2425*
1,1,0.2150,0.1075,-0.2425*
1,1,0.2150,-0.1075,-0.2425*
1,1,0.2150,-0.1075,0.2425*
%
%ADD24ROUNDEDRECTD24*%
G04:AMPARAMS|DCode=25|XSize=1.21mm|YSize=0.59mm|CornerRadius=0.1475mm|HoleSize=0mm|Usage=FLASHONLY|Rotation=180.000|XOffset=0mm|YOffset=0mm|HoleType=Round|Shape=RoundedRectangle|*
%AMROUNDEDRECTD25*
21,1,1.2100,0.2950,0,0,180.0*
21,1,0.9150,0.5900,0,0,180.0*
1,1,0.2950,-0.4575,0.1475*
1,1,0.2950,0.4575,0.1475*
1,1,0.2950,0.4575,-0.1475*
1,1,0.2950,-0.4575,-0.1475*
%
%ADD25ROUNDEDRECTD25*%
G04:AMPARAMS|DCode=26|XSize=1.5mm|YSize=0.38mm|CornerRadius=0.0475mm|HoleSize=0mm|Usage=FLASHONLY|Rotation=90.000|XOffset=0mm|YOffset=0mm|HoleType=Round|Shape=RoundedRectangle|*
%AMROUNDEDRECTD26*
21,1,1.5000,0.2850,0,0,90.0*
21,1,1.4050,0.3800,0,0,90.0*
1,1,0.0950,0.1425,0.7025*
1,1,0.0950,0.1425,-0.7025*
1,1,0.0950,-0.1425,-0.7025*
1,1,0.0950,-0.1425,0.7025*
%
%ADD26ROUNDEDRECTD26*%
%ADD27R,0.8000X0.8000*%
%ADD28R,1.3000X0.9000*%
G04:AMPARAMS|DCode=29|XSize=1.55mm|YSize=0.35mm|CornerRadius=0.0438mm|HoleSize=0mm|Usage=FLASHONLY|Rotation=180.000|XOffset=0mm|YOffset=0mm|HoleType=Round|Shape=RoundedRectangle|*
%AMROUNDEDRECTD29*
21,1,1.5500,0.2625,0,0,180.0*
21,1,1.4625,0.3500,0,0,180.0*
1,1,0.0875,-0.7313,0.1313*
1,1,0.0875,0.7313,0.1313*
1,1,0.0875,0.7313,-0.1313*
1,1,0.0875,-0.7313,-0.1313*
%
%ADD29ROUNDEDRECTD29*%
%ADD30R,0.7000X1.3000*%
%ADD31R,1.4400X1.8200*%
G04:AMPARAMS|DCode=32|XSize=0.7mm|YSize=0.43mm|CornerRadius=0.1075mm|HoleSize=0mm|Usage=FLASHONLY|Rotation=0.000|XOffset=0mm|YOffset=0mm|HoleType=Round|Shape=RoundedRectangle|*
%AMROUNDEDRECTD32*
21,1,0.7000,0.2150,0,0,0.0*
21,1,0.4850,0.4300,0,0,0.0*
1,1,0.2150,0.2425,-0.1075*
1,1,0.2150,-0.2425,-0.1075*
1,1,0.2150,-0.2425,0.1075*
1,1,0.2150,0.2425,0.1075*
%
%ADD32ROUNDEDRECTD32*%
%ADD33R,0.9000X1.3000*%
D19*
X290500Y185200D02*
D03*
Y197900D02*
D03*
Y210600D02*
D03*
Y223300D02*
D03*
X290500Y236000D02*
D03*
X290500Y248700D02*
D03*
Y261400D02*
D03*
X340000D02*
D03*
Y248700D02*
D03*
Y236000D02*
D03*
X340000Y223300D02*
D03*
X340000Y210600D02*
D03*
Y197900D02*
D03*
Y185200D02*
D03*
D20*
X355000Y353050D02*
D03*
Y372050D02*
D03*
X142000Y268000D02*
D03*
Y249000D02*
D03*
X143000Y199000D02*
D03*
Y218000D02*
D03*
X438000Y372050D02*
D03*
Y353050D02*
D03*
X382000Y372050D02*
D03*
Y353050D02*
D03*
X431000Y131000D02*
D03*
Y112000D02*
D03*
X494000Y112500D02*
D03*
Y131500D02*
D03*
X422000Y323000D02*
D03*
Y304000D02*
D03*
X88490Y322500D02*
D03*
Y303500D02*
D03*
X174000Y236500D02*
D03*
Y255500D02*
D03*
X158000Y95500D02*
D03*
Y76500D02*
D03*
X189000Y96500D02*
D03*
Y77500D02*
D03*
X130000Y97500D02*
D03*
Y78500D02*
D03*
D21*
X496200Y173200D02*
D03*
X420000D02*
D03*
X496200Y224000D02*
D03*
Y198600D02*
D03*
X420000D02*
D03*
Y224000D02*
D03*
D22*
X312192Y137000D02*
D03*
X287808D02*
D03*
X286808Y83000D02*
D03*
X311192D02*
D03*
X287000Y113000D02*
D03*
X311384D02*
D03*
D23*
X207450Y247450D02*
D03*
Y234750D02*
D03*
Y222050D02*
D03*
Y209350D02*
D03*
Y196650D02*
D03*
Y183950D02*
D03*
Y171250D02*
D03*
Y158550D02*
D03*
X256550Y247450D02*
D03*
Y234750D02*
D03*
Y222050D02*
D03*
Y209350D02*
D03*
Y196650D02*
D03*
Y183950D02*
D03*
Y171250D02*
D03*
Y158550D02*
D03*
D24*
X267500Y319000D02*
D03*
X274000D02*
D03*
X280500D02*
D03*
Y299600D02*
D03*
X274000D02*
D03*
X267500D02*
D03*
X365500Y296600D02*
D03*
X372000D02*
D03*
X378500D02*
D03*
Y316000D02*
D03*
X372000D02*
D03*
X365500D02*
D03*
D25*
X368450Y253500D02*
D03*
X368450Y272500D02*
D03*
X393550D02*
D03*
X393550Y263000D02*
D03*
X393550Y253500D02*
D03*
D26*
X349250Y141700D02*
D03*
X355750D02*
D03*
X362250D02*
D03*
X368750D02*
D03*
Y84300D02*
D03*
X362250D02*
D03*
X355750D02*
D03*
X349250D02*
D03*
D27*
X380000Y203000D02*
D03*
X389500Y182900D02*
D03*
X370500D02*
D03*
D28*
X144000Y139000D02*
D03*
Y158000D02*
D03*
X410000Y371540D02*
D03*
Y352540D02*
D03*
X462000Y130500D02*
D03*
Y111500D02*
D03*
D29*
X180300Y284500D02*
D03*
Y291000D02*
D03*
Y297500D02*
D03*
Y304000D02*
D03*
Y310500D02*
D03*
Y317000D02*
D03*
Y323500D02*
D03*
X237700D02*
D03*
Y317000D02*
D03*
Y310500D02*
D03*
Y304000D02*
D03*
Y297500D02*
D03*
Y291000D02*
D03*
Y284500D02*
D03*
D30*
X333500Y369000D02*
D03*
X314500D02*
D03*
X279500Y368550D02*
D03*
X298500D02*
D03*
X260500Y368000D02*
D03*
X241500D02*
D03*
X145500Y369000D02*
D03*
X164500D02*
D03*
X81500Y368550D02*
D03*
X62500D02*
D03*
X241000Y81000D02*
D03*
X222000D02*
D03*
X332500Y309000D02*
D03*
X313500D02*
D03*
X103990Y265000D02*
D03*
X84990D02*
D03*
X103500Y368550D02*
D03*
X122500D02*
D03*
X84990Y181000D02*
D03*
X103990D02*
D03*
X85500Y131000D02*
D03*
X104500D02*
D03*
X87500Y82000D02*
D03*
X106500D02*
D03*
D31*
X191640Y368000D02*
D03*
X218360D02*
D03*
D32*
X129300Y318500D02*
D03*
Y312000D02*
D03*
Y305500D02*
D03*
X148700D02*
D03*
Y312000D02*
D03*
Y318500D02*
D03*
D33*
X104500Y216000D02*
D03*
X85500D02*
D03*
M02*
