G04*
G04 #@! TF.GenerationSoftware,Altium Limited,Altium Designer,22.5.1 (42)*
G04*
G04 Layer_Color=65535*
%FSLAX44Y44*%
%MOMM*%
G71*
G04*
G04 #@! TF.SameCoordinates,7BE4DF7C-7C26-4D94-8E65-31FE19049D94*
G04*
G04*
G04 #@! TF.FilePolarity,Positive*
G04*
G01*
G75*
%ADD10C,0.2000*%
%ADD11C,0.1524*%
%ADD12C,0.1270*%
%ADD13C,0.2540*%
%ADD14C,0.2700*%
%ADD15C,0.1500*%
%ADD16C,0.5000*%
%ADD17C,0.1000*%
%ADD18C,0.0800*%
D10*
X356750Y182300D02*
G03*
X356750Y182300I-1000J0D01*
G01*
X265602Y292536D02*
G03*
X265602Y292536I-1000J0D01*
G01*
X406100Y252500D02*
G03*
X406100Y252500I-1000J0D01*
G01*
X344000Y78000D02*
G03*
X344000Y78000I-1000J0D01*
G01*
X252400Y281400D02*
G03*
X252400Y281400I-1000J0D01*
G01*
X473000Y385000D02*
G03*
X473000Y385000I-1000J0D01*
G01*
X123236Y321398D02*
G03*
X123236Y321398I-1000J0D01*
G01*
X363602Y289536D02*
G03*
X363602Y289536I-1000J0D01*
G01*
X365000Y346550D02*
Y378550D01*
X345000D02*
X365000D01*
X345000Y346550D02*
Y378550D01*
Y346550D02*
X365000D01*
X282220Y129888D02*
X317780D01*
Y144112D01*
X282220D02*
X317780D01*
X281220Y90112D02*
X316780D01*
X281220Y75888D02*
Y90112D01*
Y75888D02*
X316780D01*
X281412Y120112D02*
X316972D01*
X281412Y105888D02*
Y120112D01*
Y105888D02*
X316972D01*
X135110Y165010D02*
X152890D01*
Y131990D02*
Y165010D01*
X135110Y131990D02*
X152890D01*
X135110D02*
Y165010D01*
X132000Y242500D02*
X152000D01*
X132000D02*
Y274500D01*
X152000D01*
Y242500D02*
Y274500D01*
X133000Y224500D02*
X153000D01*
Y192500D02*
Y224500D01*
X133000Y192500D02*
X153000D01*
X133000D02*
Y224500D01*
X428000Y346550D02*
X448000D01*
X428000D02*
Y378550D01*
X448000D01*
Y346550D02*
Y378550D01*
X401110Y345530D02*
X418890D01*
X401110D02*
X401110Y378550D01*
X418890D01*
X418890Y345530D01*
X372000Y346550D02*
X392000D01*
X372000D02*
Y378550D01*
X392000D01*
Y346550D02*
Y378550D01*
X308000Y359000D02*
Y379000D01*
X340000D01*
Y359000D02*
Y379000D01*
X308000Y359000D02*
X340000D01*
X305000Y358550D02*
Y378550D01*
X273000Y358550D02*
X305000D01*
X273000D02*
Y378550D01*
X305000D01*
X235000Y358000D02*
Y378000D01*
X267000D01*
Y358000D02*
Y378000D01*
X235000Y358000D02*
X267000D01*
X171000Y359000D02*
Y379000D01*
X139000Y359000D02*
X171000D01*
X139000D02*
Y379000D01*
X171000D01*
X56000Y358550D02*
Y378550D01*
X88000D01*
Y358550D02*
Y378550D01*
X56000Y358550D02*
X88000D01*
X421000Y105500D02*
X441000D01*
X421000D02*
Y137500D01*
X441000D01*
Y105500D02*
Y137500D01*
X453110Y104490D02*
X470890D01*
X453110D02*
Y137510D01*
X470890D01*
Y104490D02*
Y137510D01*
X484000Y138000D02*
X504000D01*
Y106000D02*
Y138000D01*
X484000Y106000D02*
X504000D01*
X484000D02*
Y138000D01*
X412000Y297500D02*
X432000D01*
X412000D02*
Y329500D01*
X432000D01*
Y297500D02*
Y329500D01*
X215500Y71000D02*
Y91000D01*
X247500D01*
Y71000D02*
Y91000D01*
X215500Y71000D02*
X247500D01*
X307000Y299000D02*
Y319000D01*
X339000D01*
Y299000D02*
Y319000D01*
X307000Y299000D02*
X339000D01*
X78490Y255000D02*
Y275000D01*
X110490D01*
Y255000D02*
Y275000D01*
X78490Y255000D02*
X110490D01*
X78490Y297000D02*
X98490D01*
X78490D02*
Y329000D01*
X98490D01*
Y297000D02*
Y329000D01*
X97000Y358550D02*
X129000D01*
Y378550D01*
X97000D02*
X129000D01*
X97000Y358550D02*
Y378550D01*
X78490Y171000D02*
X110490D01*
Y191000D01*
X78490D02*
X110490D01*
X78490Y171000D02*
Y191000D01*
X184000Y230000D02*
Y262000D01*
X164000D02*
X184000D01*
X164000Y230000D02*
Y262000D01*
Y230000D02*
X184000D01*
X78490Y224890D02*
X111510Y224890D01*
X78490Y207110D02*
Y224890D01*
Y207110D02*
X111510Y207110D01*
Y224890D01*
X79000Y121000D02*
X111000D01*
Y141000D01*
X79000D02*
X111000D01*
X79000Y121000D02*
Y141000D01*
X81000Y72000D02*
X113000D01*
Y92000D01*
X81000D02*
X113000D01*
X81000Y72000D02*
Y92000D01*
X148000Y70000D02*
Y102000D01*
Y70000D02*
X168000D01*
Y102000D01*
X148000D02*
X168000D01*
X179000Y71000D02*
Y103000D01*
Y71000D02*
X199000D01*
Y103000D01*
X179000D02*
X199000D01*
X120000Y72000D02*
Y104000D01*
Y72000D02*
X140000D01*
Y104000D01*
X120000D02*
X140000D01*
D11*
X447940Y236700D02*
G03*
X468260Y236700I10160J0D01*
G01*
X428890D02*
X447940D01*
X468260D02*
X487310D01*
X428890Y160500D02*
X487310D01*
D12*
X276236Y158000D02*
G03*
X276236Y158000I-2236J0D01*
G01*
X305358Y178000D02*
X328758D01*
X304958Y269000D02*
X328358D01*
X213000Y152000D02*
X252000D01*
X212000Y255000D02*
X251000D01*
X285690Y302500D02*
Y316100D01*
X262310Y302500D02*
Y316100D01*
X377700Y277500D02*
X384300D01*
X373000Y259650D02*
Y266350D01*
X377700Y248500D02*
X384300Y248500D01*
X374000Y91000D02*
Y135000D01*
X344000Y91000D02*
Y135000D01*
X187000Y329000D02*
X231000D01*
X187000Y279000D02*
X231000D01*
X503000Y273500D02*
Y377500D01*
X457000Y377500D02*
X503000Y377500D01*
X457000Y273500D02*
Y377500D01*
Y273500D02*
X503000D01*
X132200Y323690D02*
X145800D01*
X132200Y300310D02*
X145800D01*
X360310Y299500D02*
Y313100D01*
X383690Y299500D02*
Y313100D01*
D13*
X588000Y41530D02*
G03*
X588000Y41530I-3000J0D01*
G01*
X19300Y65600D02*
X44700D01*
Y115600D01*
X19300Y65600D02*
Y115600D01*
X44700D01*
X548300Y212400D02*
X573700D01*
X573700Y262400D02*
X573700Y212400D01*
X548300D02*
X548300Y262400D01*
X573700D01*
X33900Y17300D02*
Y42700D01*
Y17300D02*
X135500Y17300D01*
X33900Y42700D02*
X135500Y42700D01*
Y17300D02*
Y42700D01*
X19300Y183600D02*
X44700D01*
X19300Y133600D02*
Y183600D01*
X44700Y133600D02*
Y183600D01*
X19300Y133600D02*
X44700D01*
X19300Y378280D02*
X44700D01*
X19300Y302080D02*
Y378280D01*
X44700Y302080D02*
Y378280D01*
X19300Y302080D02*
X44700D01*
X19300Y284700D02*
X44700D01*
X19300Y208500D02*
Y284700D01*
X44700Y208500D02*
Y284700D01*
X19300Y208500D02*
X44700D01*
D14*
X281966Y133698D02*
Y139794D01*
X317034Y80206D02*
Y86302D01*
X317226Y110206D02*
Y116302D01*
D15*
X377000Y187000D02*
X383000D01*
X394000Y190000D02*
Y199000D01*
X386000D02*
X394000D01*
X366000D02*
X373000Y199000D01*
X366000Y199000D02*
X366000Y190000D01*
X180500Y380000D02*
X180500Y379000D01*
X180500Y356000D02*
X228500D01*
X182500Y380000D02*
X227500D01*
X228500Y356000D02*
X228500Y379000D01*
X227500Y380000D02*
X228500Y379000D01*
X180500Y380000D02*
X182500D01*
X180500Y356000D02*
X180500Y379000D01*
X514000Y379000D02*
X517000D01*
X514000Y273000D02*
Y379000D01*
X517000D02*
X600000D01*
X514000Y273000D02*
X600000D01*
Y379000D01*
D16*
X517000Y18530D02*
X599000D01*
X517000D02*
Y168530D01*
X599000Y168530D01*
X599000Y18530D02*
X599000Y168530D01*
D17*
X10285Y77559D02*
X10999Y77321D01*
X9571D01*
X10285Y77559D01*
X10761Y78035D01*
X10999Y78749D01*
Y79464D01*
X10761Y80178D01*
X10285Y80654D01*
X9809D01*
X9333Y80416D01*
X9094Y80178D01*
X8856Y79701D01*
X8380Y78273D01*
X8142Y77797D01*
X7666Y77321D01*
X9809Y80654D02*
X9333Y80178D01*
X9094Y79701D01*
X8619Y78273D01*
X8380Y77797D01*
X8142Y77559D01*
X7666Y77321D01*
X6714D01*
X6238Y77797D01*
X6000Y78511D01*
Y79225D01*
X6238Y79940D01*
X6714Y80416D01*
X7428Y80654D01*
X6000D01*
X6714Y80416D01*
X10999Y75869D02*
X6000Y74917D01*
X10999Y75631D02*
X7190Y74917D01*
X10999Y73965D02*
X6000Y74917D01*
X10999Y73965D02*
X6000Y73012D01*
X10999Y73727D02*
X7190Y73012D01*
X10999Y72060D02*
X6000Y73012D01*
X10999Y76583D02*
Y74917D01*
Y72775D02*
Y71346D01*
X40572Y10999D02*
Y6000D01*
X40810Y10999D02*
Y6000D01*
X39858Y10999D02*
X42714D01*
X43428Y10761D01*
X43666Y10523D01*
X43904Y10047D01*
Y9571D01*
X43666Y9094D01*
X43428Y8856D01*
X42714Y8619D01*
X40810D01*
X42714Y10999D02*
X43190Y10761D01*
X43428Y10523D01*
X43666Y10047D01*
Y9571D01*
X43428Y9094D01*
X43190Y8856D01*
X42714Y8619D01*
X39858Y6000D02*
X41524D01*
X42000Y8619D02*
X42476Y8380D01*
X42714Y8142D01*
X43428Y6476D01*
X43666Y6238D01*
X43904D01*
X44142Y6476D01*
X42476Y8380D02*
X42714Y7904D01*
X43190Y6238D01*
X43428Y6000D01*
X43904D01*
X44142Y6476D01*
Y6714D01*
X605335Y282217D02*
X605573Y281502D01*
X606049Y281026D01*
X606525Y280788D01*
X607477Y280550D01*
X608191D01*
X609143Y280788D01*
X609620Y281026D01*
X610096Y281502D01*
X610334Y282217D01*
Y282693D01*
X610096Y283407D01*
X609620Y283883D01*
X609143Y284121D01*
X608191Y284359D01*
X607477D01*
X606525Y284121D01*
X606049Y283883D01*
X605573Y283407D01*
X605335Y282693D01*
Y282217D01*
X605573Y281740D01*
X606049Y281264D01*
X606525Y281026D01*
X607477Y280788D01*
X608191D01*
X609143Y281026D01*
X609620Y281264D01*
X610096Y281740D01*
X610334Y282217D01*
Y282693D02*
X610096Y283169D01*
X609620Y283645D01*
X609143Y283883D01*
X608191Y284121D01*
X607477D01*
X606525Y283883D01*
X606049Y283645D01*
X605573Y283169D01*
X605335Y282693D01*
X607001Y285763D02*
X609620D01*
X610096Y286001D01*
X610334Y286716D01*
Y287192D01*
X610096Y287906D01*
X609620Y288382D01*
X607001Y286001D02*
X609620D01*
X610096Y286240D01*
X610334Y286716D01*
X607001Y288382D02*
X610334D01*
X607001Y288620D02*
X610334D01*
X607001Y285049D02*
Y286001D01*
Y287668D02*
Y288620D01*
X610334Y288382D02*
Y289334D01*
Y291405D02*
X610096Y291167D01*
X609381Y290929D01*
X605335D01*
Y290691D01*
X609381D01*
X610096Y290929D01*
X610334Y291405D01*
Y291881D01*
X610096Y292357D01*
X609620Y292595D01*
X607001Y289977D02*
Y291881D01*
Y294119D02*
X612000D01*
X607001Y294357D02*
X612000D01*
X607715D02*
X607239Y294833D01*
X607001Y295309D01*
Y295785D01*
X607239Y296499D01*
X607715Y296975D01*
X608429Y297213D01*
X608905D01*
X609620Y296975D01*
X610096Y296499D01*
X610334Y295785D01*
Y295309D01*
X610096Y294833D01*
X609620Y294357D01*
X607001Y295785D02*
X607239Y296261D01*
X607715Y296737D01*
X608429Y296975D01*
X608905D01*
X609620Y296737D01*
X610096Y296261D01*
X610334Y295785D01*
X607001Y293405D02*
Y294357D01*
X612000Y293405D02*
Y295071D01*
X607001Y298618D02*
X609620D01*
X610096Y298856D01*
X610334Y299570D01*
Y300046D01*
X610096Y300760D01*
X609620Y301236D01*
X607001Y298856D02*
X609620D01*
X610096Y299094D01*
X610334Y299570D01*
X607001Y301236D02*
X610334D01*
X607001Y301474D02*
X610334D01*
X607001Y297904D02*
Y298856D01*
Y300522D02*
Y301474D01*
X610334Y301236D02*
Y302188D01*
Y304259D02*
X610096Y304021D01*
X609381Y303783D01*
X605335D01*
Y303545D01*
X609381D01*
X610096Y303783D01*
X610334Y304259D01*
Y304736D01*
X610096Y305212D01*
X609620Y305450D01*
X607001Y302831D02*
Y304736D01*
X605335Y65000D02*
X610334D01*
X605335Y65238D02*
X610334D01*
X605335Y64286D02*
Y65952D01*
X610334Y64286D02*
Y65952D01*
X607001Y67571D02*
X610334D01*
X607001Y67809D02*
X610334D01*
X607715D02*
X607239Y68285D01*
X607001Y68999D01*
Y69475D01*
X607239Y70189D01*
X607715Y70427D01*
X610334D01*
X607001Y69475D02*
X607239Y69951D01*
X607715Y70189D01*
X610334D01*
X607001Y66857D02*
Y67809D01*
X610334Y66857D02*
Y68523D01*
Y69475D02*
Y71142D01*
X607001Y72498D02*
X612000D01*
X607001Y72737D02*
X612000D01*
X607715D02*
X607239Y73213D01*
X607001Y73689D01*
Y74165D01*
X607239Y74879D01*
X607715Y75355D01*
X608429Y75593D01*
X608905D01*
X609620Y75355D01*
X610096Y74879D01*
X610334Y74165D01*
Y73689D01*
X610096Y73213D01*
X609620Y72737D01*
X607001Y74165D02*
X607239Y74641D01*
X607715Y75117D01*
X608429Y75355D01*
X608905D01*
X609620Y75117D01*
X610096Y74641D01*
X610334Y74165D01*
X607001Y71784D02*
Y72737D01*
X612000Y71784D02*
Y73451D01*
X607001Y76997D02*
X609620D01*
X610096Y77235D01*
X610334Y77950D01*
Y78426D01*
X610096Y79140D01*
X609620Y79616D01*
X607001Y77235D02*
X609620D01*
X610096Y77474D01*
X610334Y77950D01*
X607001Y79616D02*
X610334D01*
X607001Y79854D02*
X610334D01*
X607001Y76283D02*
Y77235D01*
Y78902D02*
Y79854D01*
X610334Y79616D02*
Y80568D01*
Y82639D02*
X610096Y82401D01*
X609381Y82163D01*
X605335D01*
Y81925D01*
X609381D01*
X610096Y82163D01*
X610334Y82639D01*
Y83115D01*
X610096Y83591D01*
X609620Y83829D01*
X607001Y81211D02*
Y83115D01*
X11951Y375701D02*
X12665Y375463D01*
X11237D01*
X11951Y375701D01*
X12427Y376177D01*
X12665Y376891D01*
Y377605D01*
X12427Y378319D01*
X11951Y378795D01*
X11475D01*
X10999Y378557D01*
X10761Y378319D01*
X10523Y377843D01*
X10047Y376415D01*
X9809Y375939D01*
X9333Y375463D01*
X11475Y378795D02*
X10999Y378319D01*
X10761Y377843D01*
X10285Y376415D01*
X10047Y375939D01*
X9809Y375701D01*
X9333Y375463D01*
X8380D01*
X7904Y375939D01*
X7666Y376653D01*
Y377367D01*
X7904Y378081D01*
X8380Y378557D01*
X9094Y378795D01*
X7666D01*
X8380Y378557D01*
X12665Y374011D02*
X12427Y374249D01*
X12189Y374011D01*
X12427Y373773D01*
X12665Y374011D01*
X10999D02*
X7666D01*
X10999Y373773D02*
X7666D01*
X10999Y374725D02*
Y373773D01*
X7666Y374725D02*
Y373058D01*
X10999Y370726D02*
X10761Y371202D01*
X10523Y371440D01*
X10047Y371678D01*
X9571D01*
X9094Y371440D01*
X8856Y371202D01*
X8618Y370726D01*
Y370249D01*
X8856Y369773D01*
X9094Y369535D01*
X9571Y369297D01*
X10047D01*
X10523Y369535D01*
X10761Y369773D01*
X10999Y370249D01*
Y370726D01*
X10761Y371202D02*
X10285Y371440D01*
X9333D01*
X8856Y371202D01*
Y369773D02*
X9333Y369535D01*
X10285D01*
X10761Y369773D01*
X10523Y369535D02*
X10761Y369297D01*
X10999Y368821D01*
X10761D01*
Y369297D01*
X9094Y371440D02*
X8856Y371678D01*
X8380Y371916D01*
X8142D01*
X7666Y371678D01*
X7428Y370964D01*
Y369773D01*
X7190Y369059D01*
X6952Y368821D01*
X8142Y371916D02*
X7904Y371678D01*
X7666Y370964D01*
Y369773D01*
X7428Y369059D01*
X6952Y368821D01*
X6714D01*
X6238Y369059D01*
X6000Y369773D01*
Y371202D01*
X6238Y371916D01*
X6714Y372154D01*
X6952D01*
X7428Y371916D01*
X7666Y371202D01*
X10999Y367369D02*
X7666D01*
X10999Y367131D02*
X7666D01*
X10285D02*
X10761Y366655D01*
X10999Y365941D01*
Y365465D01*
X10761Y364751D01*
X10285Y364513D01*
X7666D01*
X10999Y365465D02*
X10761Y364989D01*
X10285Y364751D01*
X7666D01*
X10999Y368083D02*
Y367131D01*
X7666Y368083D02*
Y366417D01*
Y365465D02*
Y363798D01*
X10523Y362680D02*
X10285D01*
Y362918D01*
X10523D01*
X10761Y362680D01*
X10999Y362204D01*
Y361251D01*
X10761Y360775D01*
X10523Y360537D01*
X10047Y360299D01*
X8380D01*
X7904Y360061D01*
X7666Y359823D01*
X10523Y360537D02*
X8380D01*
X7904Y360299D01*
X7666Y359823D01*
Y359585D01*
X10047Y360537D02*
X9809Y360775D01*
X9571Y362204D01*
X9333Y362918D01*
X8856Y363156D01*
X8380D01*
X7904Y362918D01*
X7666Y362204D01*
Y361489D01*
X7904Y361013D01*
X8380Y360537D01*
X9571Y362204D02*
X9333Y362680D01*
X8856Y362918D01*
X8380D01*
X7904Y362680D01*
X7666Y362204D01*
X12665Y358157D02*
X7666D01*
X12665Y357919D02*
X7666D01*
X12665Y358871D02*
Y357919D01*
X7666Y358871D02*
Y357205D01*
X10285Y318725D02*
X9571Y318487D01*
X10999D01*
X10285Y318725D01*
X10761Y319202D01*
X10999Y319916D01*
Y320392D01*
X10761Y321106D01*
X10285Y321582D01*
X9809Y321820D01*
X9094Y322058D01*
X7904D01*
X7190Y321820D01*
X6714Y321582D01*
X6238Y321106D01*
X6000Y320392D01*
Y319916D01*
X6238Y319202D01*
X6714Y318725D01*
X10999Y320392D02*
X10761Y320868D01*
X10285Y321344D01*
X9809Y321582D01*
X9094Y321820D01*
X7904D01*
X7190Y321582D01*
X6714Y321344D01*
X6238Y320868D01*
X6000Y320392D01*
X7904Y318725D02*
X6000D01*
X7904Y318487D02*
X6000D01*
X7904Y319440D02*
Y317773D01*
X10999Y316416D02*
X6000D01*
X10999Y316178D02*
X6476Y313322D01*
X10523Y316178D02*
X6000Y313322D01*
X10999D02*
X6000D01*
X10999Y317131D02*
Y316178D01*
Y314036D02*
Y312608D01*
X6000Y317131D02*
Y315702D01*
X10999Y311275D02*
X6000D01*
X10999Y311037D02*
X6000D01*
X10999Y311989D02*
Y309608D01*
X10761Y308894D01*
X10285Y308418D01*
X9809Y308180D01*
X9094Y307942D01*
X7904D01*
X7190Y308180D01*
X6714Y308418D01*
X6238Y308894D01*
X6000Y309608D01*
Y311989D01*
X10999Y309608D02*
X10761Y309132D01*
X10285Y308656D01*
X9809Y308418D01*
X9094Y308180D01*
X7904D01*
X7190Y308418D01*
X6714Y308656D01*
X6238Y309132D01*
X6000Y309608D01*
X10285Y225328D02*
X9571Y225090D01*
X10999D01*
X10285Y225328D01*
X10761Y225805D01*
X10999Y226519D01*
Y226995D01*
X10761Y227709D01*
X10285Y228185D01*
X9809Y228423D01*
X9094Y228661D01*
X7904D01*
X7190Y228423D01*
X6714Y228185D01*
X6238Y227709D01*
X6000Y226995D01*
Y226519D01*
X6238Y225805D01*
X6714Y225328D01*
X10999Y226995D02*
X10761Y227471D01*
X10285Y227947D01*
X9809Y228185D01*
X9094Y228423D01*
X7904D01*
X7190Y228185D01*
X6714Y227947D01*
X6238Y227471D01*
X6000Y226995D01*
X7904Y225328D02*
X6000D01*
X7904Y225090D02*
X6000D01*
X7904Y226042D02*
Y224376D01*
X10999Y223019D02*
X6000D01*
X10999Y222781D02*
X6476Y219925D01*
X10523Y222781D02*
X6000Y219925D01*
X10999D02*
X6000D01*
X10999Y223734D02*
Y222781D01*
Y220639D02*
Y219211D01*
X6000Y223734D02*
Y222305D01*
X10999Y217878D02*
X6000D01*
X10999Y217640D02*
X6000D01*
X10999Y218592D02*
Y216211D01*
X10761Y215497D01*
X10285Y215021D01*
X9809Y214783D01*
X9094Y214545D01*
X7904D01*
X7190Y214783D01*
X6714Y215021D01*
X6238Y215497D01*
X6000Y216211D01*
Y218592D01*
X10999Y216211D02*
X10761Y215735D01*
X10285Y215259D01*
X9809Y215021D01*
X9094Y214783D01*
X7904D01*
X7190Y215021D01*
X6714Y215259D01*
X6238Y215735D01*
X6000Y216211D01*
X10999Y345915D02*
X6000Y344249D01*
X10999Y345677D02*
X6714Y344249D01*
X10999Y342583D02*
X6000Y344249D01*
X10999Y346391D02*
Y344963D01*
Y343535D02*
Y342107D01*
X10285Y338131D02*
X9571Y337893D01*
X10999D01*
X10285Y338131D01*
X10761Y338607D01*
X10999Y339322D01*
Y339798D01*
X10761Y340512D01*
X10285Y340988D01*
X9809Y341226D01*
X9094Y341464D01*
X7904D01*
X7190Y341226D01*
X6714Y340988D01*
X6238Y340512D01*
X6000Y339798D01*
Y339322D01*
X6238Y338607D01*
X6714Y338131D01*
X7190Y337893D01*
X10999Y339798D02*
X10761Y340274D01*
X10285Y340750D01*
X9809Y340988D01*
X9094Y341226D01*
X7904D01*
X7190Y340988D01*
X6714Y340750D01*
X6238Y340274D01*
X6000Y339798D01*
X10285Y333847D02*
X9571Y333609D01*
X10999D01*
X10285Y333847D01*
X10761Y334323D01*
X10999Y335037D01*
Y335513D01*
X10761Y336227D01*
X10285Y336703D01*
X9809Y336941D01*
X9094Y337179D01*
X7904D01*
X7190Y336941D01*
X6714Y336703D01*
X6238Y336227D01*
X6000Y335513D01*
Y335037D01*
X6238Y334323D01*
X6714Y333847D01*
X7190Y333609D01*
X10999Y335513D02*
X10761Y335989D01*
X10285Y336465D01*
X9809Y336703D01*
X9094Y336941D01*
X7904D01*
X7190Y336703D01*
X6714Y336465D01*
X6238Y335989D01*
X6000Y335513D01*
X607715Y210501D02*
X612000D01*
X609858Y208359D02*
Y212643D01*
X607001Y213762D02*
X609381Y213286D01*
X608905Y213762D01*
X608667Y214476D01*
Y215191D01*
X608905Y215905D01*
X609381Y216381D01*
X610096Y216619D01*
X610572D01*
X611286Y216381D01*
X611762Y215905D01*
X612000Y215191D01*
Y214476D01*
X611762Y213762D01*
X611524Y213524D01*
X611048Y213286D01*
X610810D01*
X610572Y213524D01*
X610810Y213762D01*
X611048Y213524D01*
X608667Y215191D02*
X608905Y215667D01*
X609381Y216143D01*
X610096Y216381D01*
X610572D01*
X611286Y216143D01*
X611762Y215667D01*
X612000Y215191D01*
X607001Y213762D02*
Y216143D01*
X607239Y213762D02*
Y214952D01*
X607001Y216143D01*
Y217833D02*
X612000Y219499D01*
X607001Y218071D02*
X611286Y219499D01*
X607001Y221165D02*
X612000Y219499D01*
X607001Y217357D02*
Y218785D01*
Y220213D02*
Y221641D01*
X67275Y10285D02*
X67513Y9571D01*
Y10999D01*
X67275Y10285D01*
X66799Y10761D01*
X66084Y10999D01*
X65608D01*
X64894Y10761D01*
X64418Y10285D01*
X64180Y9809D01*
X63942Y9094D01*
Y7904D01*
X64180Y7190D01*
X64418Y6714D01*
X64894Y6238D01*
X65608Y6000D01*
X66084D01*
X66799Y6238D01*
X67275Y6714D01*
X65608Y10999D02*
X65132Y10761D01*
X64656Y10285D01*
X64418Y9809D01*
X64180Y9094D01*
Y7904D01*
X64418Y7190D01*
X64656Y6714D01*
X65132Y6238D01*
X65608Y6000D01*
X67275Y7904D02*
Y6000D01*
X67513Y7904D02*
Y6000D01*
X66561Y7904D02*
X68227D01*
X69584Y10999D02*
Y6000D01*
X69822Y10999D02*
X72678Y6476D01*
X69822Y10523D02*
X72678Y6000D01*
Y10999D02*
Y6000D01*
X68870Y10999D02*
X69822D01*
X71964D02*
X73392D01*
X68870Y6000D02*
X70298D01*
X74725Y10999D02*
Y6000D01*
X74963Y10999D02*
Y6000D01*
X74011Y10999D02*
X76392D01*
X77106Y10761D01*
X77582Y10285D01*
X77820Y9809D01*
X78058Y9094D01*
Y7904D01*
X77820Y7190D01*
X77582Y6714D01*
X77106Y6238D01*
X76392Y6000D01*
X74011D01*
X76392Y10999D02*
X76868Y10761D01*
X77344Y10285D01*
X77582Y9809D01*
X77820Y9094D01*
Y7904D01*
X77582Y7190D01*
X77344Y6714D01*
X76868Y6238D01*
X76392Y6000D01*
X10285Y176962D02*
X9571Y176724D01*
X10999D01*
X10285Y176962D01*
X10761Y177438D01*
X10999Y178152D01*
Y178628D01*
X10761Y179342D01*
X10285Y179818D01*
X9809Y180056D01*
X9094Y180294D01*
X7904D01*
X7190Y180056D01*
X6714Y179818D01*
X6238Y179342D01*
X6000Y178628D01*
Y178152D01*
X6238Y177438D01*
X6714Y176962D01*
X7190Y176724D01*
X10999Y178628D02*
X10761Y179104D01*
X10285Y179580D01*
X9809Y179818D01*
X9094Y180056D01*
X7904D01*
X7190Y179818D01*
X6714Y179580D01*
X6238Y179104D01*
X6000Y178628D01*
X9333Y174581D02*
X9094Y175296D01*
X8619Y175772D01*
X7904Y176010D01*
X7428D01*
X6714Y175772D01*
X6238Y175296D01*
X6000Y174581D01*
Y174105D01*
X6238Y173391D01*
X6714Y172915D01*
X7428Y172677D01*
X7904D01*
X8619Y172915D01*
X9094Y173391D01*
X9333Y174105D01*
Y174581D01*
X9094Y175058D01*
X8619Y175534D01*
X7904Y175772D01*
X7428D01*
X6714Y175534D01*
X6238Y175058D01*
X6000Y174581D01*
Y174105D02*
X6238Y173629D01*
X6714Y173153D01*
X7428Y172915D01*
X7904D01*
X8619Y173153D01*
X9094Y173629D01*
X9333Y174105D01*
Y171225D02*
X6714D01*
X6238Y170987D01*
X6000Y170273D01*
Y169797D01*
X6238Y169083D01*
X6714Y168606D01*
X9333Y170987D02*
X6714D01*
X6238Y170749D01*
X6000Y170273D01*
X9333Y168606D02*
X6000D01*
X9333Y168368D02*
X6000D01*
X9333Y171939D02*
Y170987D01*
Y169321D02*
Y168368D01*
X6000Y168606D02*
Y167654D01*
X9333Y166297D02*
X6000D01*
X9333Y166059D02*
X6000D01*
X8619D02*
X9094Y165583D01*
X9333Y164869D01*
Y164393D01*
X9094Y163679D01*
X8619Y163441D01*
X6000D01*
X9333Y164393D02*
X9094Y163917D01*
X8619Y163679D01*
X6000D01*
X9333Y167012D02*
Y166059D01*
X6000Y167012D02*
Y165345D01*
Y164393D02*
Y162727D01*
Y160656D02*
X6238Y160894D01*
X6952Y161132D01*
X10999D01*
Y161370D01*
X6952D01*
X6238Y161132D01*
X6000Y160656D01*
Y160180D01*
X6238Y159704D01*
X6714Y159466D01*
X9333Y162084D02*
Y160180D01*
X7904Y158418D02*
Y155562D01*
X8380D01*
X8856Y155800D01*
X9094Y156038D01*
X9333Y156514D01*
Y157228D01*
X9094Y157942D01*
X8619Y158418D01*
X7904Y158656D01*
X7428D01*
X6714Y158418D01*
X6238Y157942D01*
X6000Y157228D01*
Y156752D01*
X6238Y156038D01*
X6714Y155562D01*
X7904Y155800D02*
X8619D01*
X9094Y156038D01*
X9333Y157228D02*
X9094Y157704D01*
X8619Y158180D01*
X7904Y158418D01*
X7428D01*
X6714Y158180D01*
X6238Y157704D01*
X6000Y157228D01*
X9333Y154086D02*
X6000D01*
X9333Y153848D02*
X6000D01*
X7904D02*
X8619Y153610D01*
X9094Y153134D01*
X9333Y152658D01*
Y151944D01*
X9094Y151706D01*
X8856D01*
X8619Y151944D01*
X8856Y152182D01*
X9094Y151944D01*
X9333Y154800D02*
Y153848D01*
X6000Y154800D02*
Y153134D01*
X607001Y50929D02*
X612000D01*
X607001Y51167D02*
X612000D01*
X607001Y50215D02*
Y51881D01*
X612000Y50215D02*
Y53785D01*
X610572D01*
X612000Y53547D01*
X10999Y250915D02*
X6000Y249249D01*
X10999Y250677D02*
X6714Y249249D01*
X10999Y247583D02*
X6000Y249249D01*
X10999Y251392D02*
Y249963D01*
Y248535D02*
Y247107D01*
X10285Y243131D02*
X9571Y242893D01*
X10999D01*
X10285Y243131D01*
X10761Y243608D01*
X10999Y244322D01*
Y244798D01*
X10761Y245512D01*
X10285Y245988D01*
X9809Y246226D01*
X9094Y246464D01*
X7904D01*
X7190Y246226D01*
X6714Y245988D01*
X6238Y245512D01*
X6000Y244798D01*
Y244322D01*
X6238Y243608D01*
X6714Y243131D01*
X7190Y242893D01*
X10999Y244798D02*
X10761Y245274D01*
X10285Y245750D01*
X9809Y245988D01*
X9094Y246226D01*
X7904D01*
X7190Y245988D01*
X6714Y245750D01*
X6238Y245274D01*
X6000Y244798D01*
X10285Y238847D02*
X9571Y238609D01*
X10999D01*
X10285Y238847D01*
X10761Y239323D01*
X10999Y240037D01*
Y240513D01*
X10761Y241227D01*
X10285Y241703D01*
X9809Y241941D01*
X9094Y242179D01*
X7904D01*
X7190Y241941D01*
X6714Y241703D01*
X6238Y241227D01*
X6000Y240513D01*
Y240037D01*
X6238Y239323D01*
X6714Y238847D01*
X7190Y238609D01*
X10999Y240513D02*
X10761Y240989D01*
X10285Y241465D01*
X9809Y241703D01*
X9094Y241941D01*
X7904D01*
X7190Y241703D01*
X6714Y241465D01*
X6238Y240989D01*
X6000Y240513D01*
X605649Y87510D02*
X610648D01*
X605649Y87748D02*
X610172Y90605D01*
X606125Y87748D02*
X610648Y90605D01*
X605649D02*
X610648D01*
X605649Y86796D02*
Y87748D01*
Y89891D02*
Y91319D01*
X610648Y86796D02*
Y88224D01*
X607001Y131942D02*
X612000D01*
X607001Y132180D02*
X612000D01*
X608429Y133608D02*
X610334D01*
X607001Y131228D02*
Y135036D01*
X608429D01*
X607001Y134798D01*
X609381Y132180D02*
Y133608D01*
X612000Y131228D02*
Y135036D01*
X610572D01*
X612000Y134798D01*
X607001Y137393D02*
X612000D01*
X607001Y137631D02*
X612000D01*
X607001Y135965D02*
X608429Y135727D01*
X607001D01*
Y139297D01*
X608429D01*
X607001Y139059D01*
X612000Y136679D02*
Y138345D01*
X607001Y140726D02*
X612000D01*
X607001Y140964D02*
X612000D01*
X607001Y143820D02*
X612000D01*
X607001Y144058D02*
X612000D01*
X607001Y140012D02*
Y141678D01*
Y143106D02*
Y144772D01*
X609381Y140964D02*
Y143820D01*
X612000Y140012D02*
Y141678D01*
Y143106D02*
Y144772D01*
X11951Y280372D02*
X12665Y280134D01*
X11237D01*
X11951Y280372D01*
X12427Y280848D01*
X12665Y281562D01*
Y282276D01*
X12427Y282991D01*
X11951Y283467D01*
X11475D01*
X10999Y283229D01*
X10761Y282991D01*
X10523Y282514D01*
X10047Y281086D01*
X9809Y280610D01*
X9333Y280134D01*
X11475Y283467D02*
X10999Y282991D01*
X10761Y282514D01*
X10285Y281086D01*
X10047Y280610D01*
X9809Y280372D01*
X9333Y280134D01*
X8380D01*
X7904Y280610D01*
X7666Y281324D01*
Y282038D01*
X7904Y282752D01*
X8380Y283229D01*
X9094Y283467D01*
X7666D01*
X8380Y283229D01*
X12665Y278682D02*
X12427Y278920D01*
X12189Y278682D01*
X12427Y278444D01*
X12665Y278682D01*
X10999D02*
X7666D01*
X10999Y278444D02*
X7666D01*
X10999Y279396D02*
Y278444D01*
X7666Y279396D02*
Y277730D01*
X10999Y275397D02*
X10761Y275873D01*
X10523Y276111D01*
X10047Y276349D01*
X9571D01*
X9094Y276111D01*
X8856Y275873D01*
X8618Y275397D01*
Y274921D01*
X8856Y274445D01*
X9094Y274207D01*
X9571Y273969D01*
X10047D01*
X10523Y274207D01*
X10761Y274445D01*
X10999Y274921D01*
Y275397D01*
X10761Y275873D02*
X10285Y276111D01*
X9333D01*
X8856Y275873D01*
Y274445D02*
X9333Y274207D01*
X10285D01*
X10761Y274445D01*
X10523Y274207D02*
X10761Y273969D01*
X10999Y273493D01*
X10761D01*
Y273969D01*
X9094Y276111D02*
X8856Y276349D01*
X8380Y276587D01*
X8142D01*
X7666Y276349D01*
X7428Y275635D01*
Y274445D01*
X7190Y273731D01*
X6952Y273493D01*
X8142Y276587D02*
X7904Y276349D01*
X7666Y275635D01*
Y274445D01*
X7428Y273731D01*
X6952Y273493D01*
X6714D01*
X6238Y273731D01*
X6000Y274445D01*
Y275873D01*
X6238Y276587D01*
X6714Y276825D01*
X6952D01*
X7428Y276587D01*
X7666Y275873D01*
X10999Y272041D02*
X7666D01*
X10999Y271803D02*
X7666D01*
X10285D02*
X10761Y271326D01*
X10999Y270612D01*
Y270136D01*
X10761Y269422D01*
X10285Y269184D01*
X7666D01*
X10999Y270136D02*
X10761Y269660D01*
X10285Y269422D01*
X7666D01*
X10999Y272755D02*
Y271803D01*
X7666Y272755D02*
Y271088D01*
Y270136D02*
Y268470D01*
X10523Y267351D02*
X10285D01*
Y267589D01*
X10523D01*
X10761Y267351D01*
X10999Y266875D01*
Y265923D01*
X10761Y265447D01*
X10523Y265209D01*
X10047Y264971D01*
X8380D01*
X7904Y264733D01*
X7666Y264495D01*
X10523Y265209D02*
X8380D01*
X7904Y264971D01*
X7666Y264495D01*
Y264256D01*
X10047Y265209D02*
X9809Y265447D01*
X9571Y266875D01*
X9333Y267589D01*
X8856Y267827D01*
X8380D01*
X7904Y267589D01*
X7666Y266875D01*
Y266161D01*
X7904Y265685D01*
X8380Y265209D01*
X9571Y266875D02*
X9333Y267351D01*
X8856Y267589D01*
X8380D01*
X7904Y267351D01*
X7666Y266875D01*
X12665Y262828D02*
X7666D01*
X12665Y262590D02*
X7666D01*
X12665Y263542D02*
Y262590D01*
X7666Y263542D02*
Y261876D01*
X604001Y310453D02*
X609000D01*
X604001Y310691D02*
X608524Y313547D01*
X604477Y310691D02*
X609000Y313547D01*
X604001D02*
X609000D01*
X604001Y309739D02*
Y310691D01*
Y312833D02*
Y314261D01*
X609000Y309739D02*
Y311167D01*
X122702Y9023D02*
Y4024D01*
X122940Y9023D02*
Y4024D01*
X121988Y9023D02*
X124845D01*
X125559Y8785D01*
X125797Y8547D01*
X126035Y8070D01*
Y7594D01*
X125797Y7118D01*
X125559Y6880D01*
X124845Y6642D01*
Y9023D02*
X125321Y8785D01*
X125559Y8547D01*
X125797Y8070D01*
Y7594D01*
X125559Y7118D01*
X125321Y6880D01*
X124845Y6642D01*
X122940D02*
X124845D01*
X125559Y6404D01*
X125797Y6166D01*
X126035Y5690D01*
Y4976D01*
X125797Y4500D01*
X125559Y4262D01*
X124845Y4024D01*
X121988D01*
X124845Y6642D02*
X125321Y6404D01*
X125559Y6166D01*
X125797Y5690D01*
Y4976D01*
X125559Y4500D01*
X125321Y4262D01*
X124845Y4024D01*
X10285Y143559D02*
X10999Y143321D01*
X9571D01*
X10285Y143559D01*
X10761Y144035D01*
X10999Y144749D01*
Y145463D01*
X10761Y146178D01*
X10285Y146654D01*
X9809D01*
X9333Y146416D01*
X9094Y146178D01*
X8856Y145702D01*
X8380Y144273D01*
X8142Y143797D01*
X7666Y143321D01*
X9809Y146654D02*
X9333Y146178D01*
X9094Y145702D01*
X8618Y144273D01*
X8380Y143797D01*
X8142Y143559D01*
X7666Y143321D01*
X6714D01*
X6238Y143797D01*
X6000Y144511D01*
Y145225D01*
X6238Y145940D01*
X6714Y146416D01*
X7428Y146654D01*
X6000D01*
X6714Y146416D01*
X10999Y141869D02*
X6000Y140917D01*
X10999Y141631D02*
X7190Y140917D01*
X10999Y139965D02*
X6000Y140917D01*
X10999Y139965D02*
X6000Y139012D01*
X10999Y139727D02*
X7190Y139012D01*
X10999Y138060D02*
X6000Y139012D01*
X10999Y142583D02*
Y140917D01*
Y138774D02*
Y137346D01*
X605001Y362929D02*
X610000D01*
X605001Y363167D02*
X610000D01*
X605001Y362215D02*
Y363881D01*
X610000Y362215D02*
Y365785D01*
X608572D01*
X610000Y365547D01*
X10999Y112116D02*
X6000D01*
X10999Y111878D02*
X6714Y110450D01*
X10999Y112116D02*
X6000Y110450D01*
X10999Y108784D02*
X6000Y110450D01*
X10999Y108784D02*
X6000D01*
X10999Y108546D02*
X6000D01*
X10999Y112830D02*
Y111878D01*
Y108784D02*
Y107832D01*
X6000Y112830D02*
Y111402D01*
Y109498D02*
Y107832D01*
X8856Y106784D02*
X8618D01*
Y107022D01*
X8856D01*
X9094Y106784D01*
X9333Y106308D01*
Y105356D01*
X9094Y104880D01*
X8856Y104642D01*
X8380Y104404D01*
X6714D01*
X6238Y104166D01*
X6000Y103928D01*
X8856Y104642D02*
X6714D01*
X6238Y104404D01*
X6000Y103928D01*
Y103690D01*
X8380Y104642D02*
X8142Y104880D01*
X7904Y106308D01*
X7666Y107022D01*
X7190Y107260D01*
X6714D01*
X6238Y107022D01*
X6000Y106308D01*
Y105594D01*
X6238Y105118D01*
X6714Y104642D01*
X7904Y106308D02*
X7666Y106784D01*
X7190Y107022D01*
X6714D01*
X6238Y106784D01*
X6000Y106308D01*
X9333Y102261D02*
X6000D01*
X9333Y102023D02*
X6000D01*
X8618D02*
X9094Y101547D01*
X9333Y100833D01*
Y100357D01*
X9094Y99643D01*
X8618Y99405D01*
X6000D01*
X9333Y100357D02*
X9094Y99881D01*
X8618Y99643D01*
X6000D01*
X9333Y102976D02*
Y102023D01*
X6000Y102976D02*
Y101309D01*
Y100357D02*
Y98691D01*
X9333Y97334D02*
X6714D01*
X6238Y97096D01*
X6000Y96382D01*
Y95906D01*
X6238Y95191D01*
X6714Y94715D01*
X9333Y97096D02*
X6714D01*
X6238Y96858D01*
X6000Y96382D01*
X9333Y94715D02*
X6000D01*
X9333Y94477D02*
X6000D01*
X9333Y98048D02*
Y97096D01*
Y95429D02*
Y94477D01*
X6000Y94715D02*
Y93763D01*
X8856Y92644D02*
X8618D01*
Y92882D01*
X8856D01*
X9094Y92644D01*
X9333Y92168D01*
Y91216D01*
X9094Y90740D01*
X8856Y90502D01*
X8380Y90264D01*
X6714D01*
X6238Y90026D01*
X6000Y89788D01*
X8856Y90502D02*
X6714D01*
X6238Y90264D01*
X6000Y89788D01*
Y89550D01*
X8380Y90502D02*
X8142Y90740D01*
X7904Y92168D01*
X7666Y92882D01*
X7190Y93120D01*
X6714D01*
X6238Y92882D01*
X6000Y92168D01*
Y91454D01*
X6238Y90978D01*
X6714Y90502D01*
X7904Y92168D02*
X7666Y92644D01*
X7190Y92882D01*
X6714D01*
X6238Y92644D01*
X6000Y92168D01*
X10999Y88122D02*
X6000D01*
X10999Y87884D02*
X6000D01*
X10999Y88836D02*
Y87884D01*
X6000Y88836D02*
Y87169D01*
X100190Y9285D02*
X100428Y8571D01*
Y9999D01*
X100190Y9285D01*
X99714Y9761D01*
X99000Y9999D01*
X98524D01*
X97810Y9761D01*
X97334Y9285D01*
X97096Y8809D01*
X96858Y8094D01*
Y6904D01*
X97096Y6190D01*
X97334Y5714D01*
X97810Y5238D01*
X98524Y5000D01*
X99000D01*
X99714Y5238D01*
X100190Y5714D01*
X98524Y9999D02*
X98048Y9761D01*
X97572Y9285D01*
X97334Y8809D01*
X97096Y8094D01*
Y6904D01*
X97334Y6190D01*
X97572Y5714D01*
X98048Y5238D01*
X98524Y5000D01*
X100190Y6904D02*
Y5000D01*
X100428Y6904D02*
Y5000D01*
X99476Y6904D02*
X101142D01*
X607715Y240275D02*
X608429Y240513D01*
X607001D01*
X607715Y240275D01*
X607239Y239799D01*
X607001Y239084D01*
Y238608D01*
X607239Y237894D01*
X607715Y237418D01*
X608191Y237180D01*
X608905Y236942D01*
X610096D01*
X610810Y237180D01*
X611286Y237418D01*
X611762Y237894D01*
X612000Y238608D01*
Y239084D01*
X611762Y239799D01*
X611286Y240275D01*
X607001Y238608D02*
X607239Y238132D01*
X607715Y237656D01*
X608191Y237418D01*
X608905Y237180D01*
X610096D01*
X610810Y237418D01*
X611286Y237656D01*
X611762Y238132D01*
X612000Y238608D01*
X610096Y240275D02*
X612000D01*
X610096Y240513D02*
X612000D01*
X610096Y239561D02*
Y241227D01*
X607001Y242584D02*
X612000D01*
X607001Y242822D02*
X611524Y245678D01*
X607477Y242822D02*
X612000Y245678D01*
X607001D02*
X612000D01*
X607001Y241870D02*
Y242822D01*
Y244964D02*
Y246392D01*
X612000Y241870D02*
Y243298D01*
X607001Y247725D02*
X612000D01*
X607001Y247963D02*
X612000D01*
X607001Y247011D02*
Y249392D01*
X607239Y250106D01*
X607715Y250582D01*
X608191Y250820D01*
X608905Y251058D01*
X610096D01*
X610810Y250820D01*
X611286Y250582D01*
X611762Y250106D01*
X612000Y249392D01*
Y247011D01*
X607001Y249392D02*
X607239Y249868D01*
X607715Y250344D01*
X608191Y250582D01*
X608905Y250820D01*
X610096D01*
X610810Y250582D01*
X611286Y250344D01*
X611762Y249868D01*
X612000Y249392D01*
X605335Y27942D02*
X610334D01*
X605335Y28180D02*
X610334D01*
X605335Y27228D02*
Y28895D01*
X610334Y27228D02*
Y28895D01*
X607001Y30513D02*
X610334D01*
X607001Y30751D02*
X610334D01*
X607715D02*
X607239Y31227D01*
X607001Y31942D01*
Y32418D01*
X607239Y33132D01*
X607715Y33370D01*
X610334D01*
X607001Y32418D02*
X607239Y32894D01*
X607715Y33132D01*
X610334D01*
X607001Y29799D02*
Y30751D01*
X610334Y29799D02*
Y31465D01*
Y32418D02*
Y34084D01*
X607001Y35441D02*
X612000D01*
X607001Y35679D02*
X612000D01*
X607715D02*
X607239Y36155D01*
X607001Y36631D01*
Y37107D01*
X607239Y37821D01*
X607715Y38297D01*
X608429Y38535D01*
X608905D01*
X609620Y38297D01*
X610096Y37821D01*
X610334Y37107D01*
Y36631D01*
X610096Y36155D01*
X609620Y35679D01*
X607001Y37107D02*
X607239Y37583D01*
X607715Y38059D01*
X608429Y38297D01*
X608905D01*
X609620Y38059D01*
X610096Y37583D01*
X610334Y37107D01*
X607001Y34727D02*
Y35679D01*
X612000Y34727D02*
Y36393D01*
X607001Y39940D02*
X609620D01*
X610096Y40178D01*
X610334Y40892D01*
Y41368D01*
X610096Y42082D01*
X609620Y42558D01*
X607001Y40178D02*
X609620D01*
X610096Y40416D01*
X610334Y40892D01*
X607001Y42558D02*
X610334D01*
X607001Y42796D02*
X610334D01*
X607001Y39226D02*
Y40178D01*
Y41844D02*
Y42796D01*
X610334Y42558D02*
Y43510D01*
Y45581D02*
X610096Y45343D01*
X609381Y45105D01*
X605335D01*
Y44867D01*
X609381D01*
X610096Y45105D01*
X610334Y45581D01*
Y46058D01*
X610096Y46534D01*
X609620Y46772D01*
X607001Y44153D02*
Y46058D01*
X605335Y333217D02*
X605573Y332503D01*
X606049Y332026D01*
X606525Y331788D01*
X607477Y331550D01*
X608191D01*
X609143Y331788D01*
X609620Y332026D01*
X610096Y332503D01*
X610334Y333217D01*
Y333693D01*
X610096Y334407D01*
X609620Y334883D01*
X609143Y335121D01*
X608191Y335359D01*
X607477D01*
X606525Y335121D01*
X606049Y334883D01*
X605573Y334407D01*
X605335Y333693D01*
Y333217D01*
X605573Y332741D01*
X606049Y332264D01*
X606525Y332026D01*
X607477Y331788D01*
X608191D01*
X609143Y332026D01*
X609620Y332264D01*
X610096Y332741D01*
X610334Y333217D01*
Y333693D02*
X610096Y334169D01*
X609620Y334645D01*
X609143Y334883D01*
X608191Y335121D01*
X607477D01*
X606525Y334883D01*
X606049Y334645D01*
X605573Y334169D01*
X605335Y333693D01*
X607001Y336763D02*
X609620D01*
X610096Y337001D01*
X610334Y337716D01*
Y338192D01*
X610096Y338906D01*
X609620Y339382D01*
X607001Y337001D02*
X609620D01*
X610096Y337240D01*
X610334Y337716D01*
X607001Y339382D02*
X610334D01*
X607001Y339620D02*
X610334D01*
X607001Y336049D02*
Y337001D01*
Y338668D02*
Y339620D01*
X610334Y339382D02*
Y340334D01*
Y342405D02*
X610096Y342167D01*
X609381Y341929D01*
X605335D01*
Y341691D01*
X609381D01*
X610096Y341929D01*
X610334Y342405D01*
Y342881D01*
X610096Y343357D01*
X609620Y343595D01*
X607001Y340977D02*
Y342881D01*
Y345119D02*
X612000D01*
X607001Y345357D02*
X612000D01*
X607715D02*
X607239Y345833D01*
X607001Y346309D01*
Y346785D01*
X607239Y347499D01*
X607715Y347975D01*
X608429Y348213D01*
X608905D01*
X609620Y347975D01*
X610096Y347499D01*
X610334Y346785D01*
Y346309D01*
X610096Y345833D01*
X609620Y345357D01*
X607001Y346785D02*
X607239Y347261D01*
X607715Y347737D01*
X608429Y347975D01*
X608905D01*
X609620Y347737D01*
X610096Y347261D01*
X610334Y346785D01*
X607001Y344405D02*
Y345357D01*
X612000Y344405D02*
Y346071D01*
X607001Y349618D02*
X609620D01*
X610096Y349856D01*
X610334Y350570D01*
Y351046D01*
X610096Y351760D01*
X609620Y352236D01*
X607001Y349856D02*
X609620D01*
X610096Y350094D01*
X610334Y350570D01*
X607001Y352236D02*
X610334D01*
X607001Y352474D02*
X610334D01*
X607001Y348904D02*
Y349856D01*
Y351522D02*
Y352474D01*
X610334Y352236D02*
Y353189D01*
Y355260D02*
X610096Y355021D01*
X609381Y354783D01*
X605335D01*
Y354545D01*
X609381D01*
X610096Y354783D01*
X610334Y355260D01*
Y355736D01*
X610096Y356212D01*
X609620Y356450D01*
X607001Y353831D02*
Y355736D01*
D18*
X402029Y229447D02*
X402505Y229685D01*
X403219Y230399D01*
Y225400D01*
X402981Y230161D02*
Y225400D01*
X402029D02*
X404171D01*
X290835Y277499D02*
Y273334D01*
X291668Y272501D01*
X293334D01*
X294167Y273334D01*
Y277499D01*
X295833Y276666D02*
X296666Y277499D01*
X298332D01*
X299165Y276666D01*
Y275833D01*
X298332Y275000D01*
X297499D01*
X298332D01*
X299165Y274167D01*
Y273334D01*
X298332Y272501D01*
X296666D01*
X295833Y273334D01*
X52800Y103800D02*
X54466D01*
X53633D01*
Y108798D01*
X52800Y107965D01*
X579800Y219800D02*
X581466D01*
X580633D01*
Y224798D01*
X579800Y223965D01*
X44200Y48800D02*
Y50466D01*
Y49633D01*
X39202D01*
X40035Y48800D01*
X54800Y172800D02*
X56466D01*
X55633D01*
Y177798D01*
X54800Y176965D01*
X49800Y366800D02*
X51466D01*
X50633D01*
Y371798D01*
X49800Y370965D01*
X50800Y267800D02*
X52466D01*
X51633D01*
Y272798D01*
X50800Y271965D01*
X483870Y144780D02*
Y149778D01*
X486369D01*
X487202Y148945D01*
Y147279D01*
X486369Y146446D01*
X483870D01*
X485536D02*
X487202Y144780D01*
X492201D02*
X488868D01*
X492201Y148112D01*
Y148945D01*
X491367Y149778D01*
X489701D01*
X488868Y148945D01*
X497199Y144780D02*
X493867D01*
X497199Y148112D01*
Y148945D01*
X496366Y149778D01*
X494700D01*
X493867Y148945D01*
X405499Y309169D02*
X400501D01*
Y311668D01*
X401334Y312501D01*
X403000D01*
X403833Y311668D01*
Y309169D01*
Y310835D02*
X405499Y312501D01*
Y317499D02*
Y314167D01*
X402167Y317499D01*
X401334D01*
X400501Y316666D01*
Y315000D01*
X401334Y314167D01*
X405499Y319165D02*
Y320831D01*
Y319998D01*
X400501D01*
X401334Y319165D01*
X456214Y148437D02*
X455381Y149270D01*
X453715D01*
X452882Y148437D01*
Y145105D01*
X453715Y144272D01*
X455381D01*
X456214Y145105D01*
X461213Y149270D02*
X457880D01*
Y146771D01*
X459547Y147604D01*
X460379D01*
X461213Y146771D01*
Y145105D01*
X460379Y144272D01*
X458713D01*
X457880Y145105D01*
X24101Y30668D02*
Y29002D01*
Y29835D01*
X28266D01*
X29099Y29002D01*
Y28169D01*
X28266Y27336D01*
X29099Y32334D02*
X24101D01*
Y34833D01*
X24934Y35666D01*
X26600D01*
X27433Y34833D01*
Y32334D01*
X24934Y37332D02*
X24101Y38165D01*
Y39831D01*
X24934Y40665D01*
X25767D01*
X26600Y39831D01*
Y38998D01*
Y39831D01*
X27433Y40665D01*
X28266D01*
X29099Y39831D01*
Y38165D01*
X28266Y37332D01*
X453835Y388499D02*
Y384334D01*
X454668Y383501D01*
X456334D01*
X457167Y384334D01*
Y388499D01*
X462165D02*
X460499Y387666D01*
X458833Y386000D01*
Y384334D01*
X459666Y383501D01*
X461332D01*
X462165Y384334D01*
Y385167D01*
X461332Y386000D01*
X458833D01*
X453835Y251499D02*
Y247334D01*
X454668Y246501D01*
X456334D01*
X457167Y247334D01*
Y251499D01*
X458833D02*
X462165D01*
Y250666D01*
X458833Y247334D01*
Y246501D01*
X334501Y87835D02*
X338666D01*
X339499Y88668D01*
Y90334D01*
X338666Y91167D01*
X334501D01*
Y96165D02*
Y92833D01*
X337000D01*
X336167Y94499D01*
Y95332D01*
X337000Y96165D01*
X338666D01*
X339499Y95332D01*
Y93666D01*
X338666Y92833D01*
X198835Y262499D02*
Y258334D01*
X199668Y257501D01*
X201334D01*
X202167Y258334D01*
Y262499D01*
X206332Y257501D02*
Y262499D01*
X203833Y260000D01*
X207165D01*
X391835Y287499D02*
Y283334D01*
X392668Y282501D01*
X394334D01*
X395167Y283334D01*
Y287499D01*
X400165Y282501D02*
X396833D01*
X400165Y285833D01*
Y286666D01*
X399332Y287499D01*
X397666D01*
X396833Y286666D01*
X249501Y292668D02*
X253666D01*
X254499Y293501D01*
Y295167D01*
X253666Y296000D01*
X249501D01*
X254499Y297666D02*
Y299332D01*
Y298499D01*
X249501D01*
X250334Y297666D01*
X119888Y110998D02*
Y115996D01*
X122387D01*
X123220Y115163D01*
Y113497D01*
X122387Y112664D01*
X119888D01*
X121554D02*
X123220Y110998D01*
X128219D02*
X124886D01*
X128219Y114330D01*
Y115163D01*
X127386Y115996D01*
X125719D01*
X124886Y115163D01*
X133217Y115996D02*
X129885D01*
Y113497D01*
X131551Y114330D01*
X132384D01*
X133217Y113497D01*
Y111831D01*
X132384Y110998D01*
X130718D01*
X129885Y111831D01*
X178816Y109982D02*
Y114980D01*
X181315D01*
X182148Y114147D01*
Y112481D01*
X181315Y111648D01*
X178816D01*
X180482D02*
X182148Y109982D01*
X187147D02*
X183814D01*
X187147Y113314D01*
Y114147D01*
X186313Y114980D01*
X184647D01*
X183814Y114147D01*
X191312Y109982D02*
Y114980D01*
X188813Y112481D01*
X192145D01*
X147828Y108966D02*
Y113964D01*
X150327D01*
X151160Y113131D01*
Y111465D01*
X150327Y110632D01*
X147828D01*
X149494D02*
X151160Y108966D01*
X156159D02*
X152826D01*
X156159Y112298D01*
Y113131D01*
X155325Y113964D01*
X153659D01*
X152826Y113131D01*
X157825D02*
X158658Y113964D01*
X160324D01*
X161157Y113131D01*
Y112298D01*
X160324Y111465D01*
X159491D01*
X160324D01*
X161157Y110632D01*
Y109799D01*
X160324Y108966D01*
X158658D01*
X157825Y109799D01*
X420878Y144272D02*
Y149270D01*
X423377D01*
X424210Y148437D01*
Y146771D01*
X423377Y145938D01*
X420878D01*
X422544D02*
X424210Y144272D01*
X429209D02*
X425876D01*
X429209Y147604D01*
Y148437D01*
X428376Y149270D01*
X426709D01*
X425876Y148437D01*
X430875D02*
X431708Y149270D01*
X433374D01*
X434207Y148437D01*
Y145105D01*
X433374Y144272D01*
X431708D01*
X430875Y145105D01*
Y148437D01*
X80772Y98806D02*
Y103804D01*
X83271D01*
X84104Y102971D01*
Y101305D01*
X83271Y100472D01*
X80772D01*
X82438D02*
X84104Y98806D01*
X85770D02*
X87437D01*
X86603D01*
Y103804D01*
X85770Y102971D01*
X89936Y99639D02*
X90769Y98806D01*
X92435D01*
X93268Y99639D01*
Y102971D01*
X92435Y103804D01*
X90769D01*
X89936Y102971D01*
Y102138D01*
X90769Y101305D01*
X93268D01*
X215392Y97790D02*
Y102788D01*
X217891D01*
X218724Y101955D01*
Y100289D01*
X217891Y99456D01*
X215392D01*
X217058D02*
X218724Y97790D01*
X220390D02*
X222057D01*
X221223D01*
Y102788D01*
X220390Y101955D01*
X224556D02*
X225389Y102788D01*
X227055D01*
X227888Y101955D01*
Y101122D01*
X227055Y100289D01*
X227888Y99456D01*
Y98623D01*
X227055Y97790D01*
X225389D01*
X224556Y98623D01*
Y99456D01*
X225389Y100289D01*
X224556Y101122D01*
Y101955D01*
X225389Y100289D02*
X227055D01*
X78740Y147828D02*
Y152826D01*
X81239D01*
X82072Y151993D01*
Y150327D01*
X81239Y149494D01*
X78740D01*
X80406D02*
X82072Y147828D01*
X83738D02*
X85405D01*
X84571D01*
Y152826D01*
X83738Y151993D01*
X87904Y152826D02*
X91236D01*
Y151993D01*
X87904Y148661D01*
Y147828D01*
X128499Y213752D02*
X123501D01*
Y216251D01*
X124334Y217084D01*
X126000D01*
X126833Y216251D01*
Y213752D01*
Y215418D02*
X128499Y217084D01*
Y218750D02*
Y220417D01*
Y219583D01*
X123501D01*
X124334Y218750D01*
X123501Y226248D02*
X124334Y224582D01*
X126000Y222916D01*
X127666D01*
X128499Y223749D01*
Y225415D01*
X127666Y226248D01*
X126833D01*
X126000Y225415D01*
Y222916D01*
X163830Y268986D02*
Y273984D01*
X166329D01*
X167162Y273151D01*
Y271485D01*
X166329Y270652D01*
X163830D01*
X165496D02*
X167162Y268986D01*
X168828D02*
X170494D01*
X169661D01*
Y273984D01*
X168828Y273151D01*
X176326Y273984D02*
X172994D01*
Y271485D01*
X174660Y272318D01*
X175493D01*
X176326Y271485D01*
Y269819D01*
X175493Y268986D01*
X173827D01*
X172994Y269819D01*
X78232Y197866D02*
Y202864D01*
X80731D01*
X81564Y202031D01*
Y200365D01*
X80731Y199532D01*
X78232D01*
X79898D02*
X81564Y197866D01*
X83230D02*
X84896D01*
X84063D01*
Y202864D01*
X83230Y202031D01*
X89895Y197866D02*
Y202864D01*
X87396Y200365D01*
X90728D01*
X126499Y262752D02*
X121501D01*
Y265251D01*
X122334Y266084D01*
X124000D01*
X124833Y265251D01*
Y262752D01*
Y264418D02*
X126499Y266084D01*
Y267750D02*
Y269417D01*
Y268583D01*
X121501D01*
X122334Y267750D01*
Y271916D02*
X121501Y272749D01*
Y274415D01*
X122334Y275248D01*
X123167D01*
X124000Y274415D01*
Y273582D01*
Y274415D01*
X124833Y275248D01*
X125666D01*
X126499Y274415D01*
Y272749D01*
X125666Y271916D01*
X314752Y384501D02*
Y389499D01*
X317251D01*
X318084Y388666D01*
Y387000D01*
X317251Y386167D01*
X314752D01*
X316418D02*
X318084Y384501D01*
X319750D02*
X321417D01*
X320583D01*
Y389499D01*
X319750Y388666D01*
X327248Y384501D02*
X323916D01*
X327248Y387833D01*
Y388666D01*
X326415Y389499D01*
X324749D01*
X323916Y388666D01*
X295585Y321501D02*
Y326499D01*
X298084D01*
X298917Y325666D01*
Y324000D01*
X298084Y323167D01*
X295585D01*
X297251D02*
X298917Y321501D01*
X300583D02*
X302250D01*
X301416D01*
Y326499D01*
X300583Y325666D01*
X304749Y321501D02*
X306415D01*
X305582D01*
Y326499D01*
X304749Y325666D01*
X72489Y260752D02*
X67491D01*
Y263251D01*
X68324Y264084D01*
X69990D01*
X70823Y263251D01*
Y260752D01*
Y262418D02*
X72489Y264084D01*
Y265750D02*
Y267416D01*
Y266583D01*
X67491D01*
X68324Y265750D01*
Y269916D02*
X67491Y270749D01*
Y272415D01*
X68324Y273248D01*
X71656D01*
X72489Y272415D01*
Y270749D01*
X71656Y269916D01*
X68324D01*
X273835Y384501D02*
Y389499D01*
X276334D01*
X277167Y388666D01*
Y387000D01*
X276334Y386167D01*
X273835D01*
X275501D02*
X277167Y384501D01*
X278833Y385334D02*
X279666Y384501D01*
X281332D01*
X282165Y385334D01*
Y388666D01*
X281332Y389499D01*
X279666D01*
X278833Y388666D01*
Y387833D01*
X279666Y387000D01*
X282165D01*
X245835Y382501D02*
Y387499D01*
X248334D01*
X249167Y386666D01*
Y385000D01*
X248334Y384167D01*
X245835D01*
X247501D02*
X249167Y382501D01*
X250833Y386666D02*
X251666Y387499D01*
X253332D01*
X254165Y386666D01*
Y385833D01*
X253332Y385000D01*
X254165Y384167D01*
Y383334D01*
X253332Y382501D01*
X251666D01*
X250833Y383334D01*
Y384167D01*
X251666Y385000D01*
X250833Y385833D01*
Y386666D01*
X251666Y385000D02*
X253332D01*
X138835Y384501D02*
Y389499D01*
X141334D01*
X142167Y388666D01*
Y387000D01*
X141334Y386167D01*
X138835D01*
X140501D02*
X142167Y384501D01*
X143833Y389499D02*
X147165D01*
Y388666D01*
X143833Y385334D01*
Y384501D01*
X427835D02*
Y389499D01*
X430334D01*
X431167Y388666D01*
Y387000D01*
X430334Y386167D01*
X427835D01*
X429501D02*
X431167Y384501D01*
X436165Y389499D02*
X434499Y388666D01*
X432833Y387000D01*
Y385334D01*
X433666Y384501D01*
X435332D01*
X436165Y385334D01*
Y386167D01*
X435332Y387000D01*
X432833D01*
X371835Y384501D02*
Y389499D01*
X374334D01*
X375167Y388666D01*
Y387000D01*
X374334Y386167D01*
X371835D01*
X373501D02*
X375167Y384501D01*
X380165Y389499D02*
X376833D01*
Y387000D01*
X378499Y387833D01*
X379332D01*
X380165Y387000D01*
Y385334D01*
X379332Y384501D01*
X377666D01*
X376833Y385334D01*
X343835Y384501D02*
Y389499D01*
X346334D01*
X347167Y388666D01*
Y387000D01*
X346334Y386167D01*
X343835D01*
X345501D02*
X347167Y384501D01*
X351332D02*
Y389499D01*
X348833Y387000D01*
X352165D01*
X57835Y382501D02*
Y387499D01*
X60334D01*
X61167Y386666D01*
Y385000D01*
X60334Y384167D01*
X57835D01*
X59501D02*
X61167Y382501D01*
X62833Y386666D02*
X63666Y387499D01*
X65332D01*
X66165Y386666D01*
Y385833D01*
X65332Y385000D01*
X64499D01*
X65332D01*
X66165Y384167D01*
Y383334D01*
X65332Y382501D01*
X63666D01*
X62833Y383334D01*
X74989Y301335D02*
X69991D01*
Y303834D01*
X70824Y304667D01*
X72490D01*
X73323Y303834D01*
Y301335D01*
Y303001D02*
X74989Y304667D01*
Y309665D02*
Y306333D01*
X71657Y309665D01*
X70824D01*
X69991Y308832D01*
Y307166D01*
X70824Y306333D01*
X97668Y384501D02*
Y389499D01*
X100167D01*
X101000Y388666D01*
Y387000D01*
X100167Y386167D01*
X97668D01*
X99334D02*
X101000Y384501D01*
X102666D02*
X104332D01*
X103499D01*
Y389499D01*
X102666Y388666D01*
X137666Y328334D02*
Y331666D01*
X136833Y332499D01*
X135167D01*
X134334Y331666D01*
Y328334D01*
X135167Y327501D01*
X136833D01*
X136000Y329167D02*
X137666Y327501D01*
X136833D02*
X137666Y328334D01*
X378666Y216167D02*
X375334D01*
X374501Y215334D01*
Y213668D01*
X375334Y212835D01*
X378666D01*
X379499Y213668D01*
Y215334D01*
X377833Y214501D02*
X379499Y216167D01*
Y215334D02*
X378666Y216167D01*
X375334Y217833D02*
X374501Y218666D01*
Y220332D01*
X375334Y221165D01*
X376167D01*
X377000Y220332D01*
Y219499D01*
Y220332D01*
X377833Y221165D01*
X378666D01*
X379499Y220332D01*
Y218666D01*
X378666Y217833D01*
X267666Y329167D02*
X264334D01*
X263501Y328334D01*
Y326668D01*
X264334Y325835D01*
X267666D01*
X268499Y326668D01*
Y328334D01*
X266833Y327501D02*
X268499Y329167D01*
Y328334D02*
X267666Y329167D01*
X268499Y334165D02*
Y330833D01*
X265167Y334165D01*
X264334D01*
X263501Y333332D01*
Y331666D01*
X264334Y330833D01*
X363758Y326715D02*
Y330047D01*
X362925Y330880D01*
X361259D01*
X360426Y330047D01*
Y326715D01*
X361259Y325882D01*
X362925D01*
X362092Y327548D02*
X363758Y325882D01*
X362925D02*
X363758Y326715D01*
X365424Y325882D02*
X367090D01*
X366257D01*
Y330880D01*
X365424Y330047D01*
X52501Y241668D02*
Y240002D01*
Y240835D01*
X56666D01*
X57499Y240002D01*
Y239169D01*
X56666Y238335D01*
X57499Y243334D02*
X52501D01*
Y245833D01*
X53334Y246666D01*
X55000D01*
X55833Y245833D01*
Y243334D01*
X57499Y251665D02*
Y248332D01*
X54167Y251665D01*
X53334D01*
X52501Y250831D01*
Y249165D01*
X53334Y248332D01*
X52501Y336501D02*
Y334835D01*
Y335668D01*
X56666D01*
X57499Y334835D01*
Y334002D01*
X56666Y333169D01*
X57499Y338167D02*
X52501D01*
Y340666D01*
X53334Y341499D01*
X55000D01*
X55833Y340666D01*
Y338167D01*
X57499Y343165D02*
Y344831D01*
Y343998D01*
X52501D01*
X53334Y343165D01*
X535501Y238167D02*
Y236501D01*
Y237334D01*
X539666D01*
X540499Y236501D01*
Y235668D01*
X539666Y234835D01*
X535501Y239833D02*
Y243165D01*
X536334D01*
X539666Y239833D01*
X540499D01*
X577167Y182499D02*
X575501D01*
X576334D01*
Y178334D01*
X575501Y177501D01*
X574668D01*
X573835Y178334D01*
X581332Y177501D02*
Y182499D01*
X578833Y180000D01*
X582165D01*
X517428Y390570D02*
X515762D01*
X516595D01*
Y386405D01*
X515762Y385572D01*
X514929D01*
X514096Y386405D01*
X519094Y389737D02*
X519927Y390570D01*
X521594D01*
X522427Y389737D01*
Y388904D01*
X521594Y388071D01*
X520760D01*
X521594D01*
X522427Y387238D01*
Y386405D01*
X521594Y385572D01*
X519927D01*
X519094Y386405D01*
X51501Y90167D02*
Y88501D01*
Y89334D01*
X55666D01*
X56499Y88501D01*
Y87668D01*
X55666Y86835D01*
X56499Y95165D02*
Y91833D01*
X53167Y95165D01*
X52334D01*
X51501Y94332D01*
Y92666D01*
X52334Y91833D01*
X52501Y157000D02*
Y155334D01*
Y156167D01*
X56666D01*
X57499Y155334D01*
Y154501D01*
X56666Y153668D01*
X57499Y158666D02*
Y160332D01*
Y159499D01*
X52501D01*
X53334Y158666D01*
X264835Y141499D02*
Y136501D01*
X267334D01*
X268167Y137334D01*
Y140666D01*
X267334Y141499D01*
X264835D01*
X269833Y140666D02*
X270666Y141499D01*
X272332D01*
X273165Y140666D01*
Y139833D01*
X272332Y139000D01*
X271499D01*
X272332D01*
X273165Y138167D01*
Y137334D01*
X272332Y136501D01*
X270666D01*
X269833Y137334D01*
X266835Y88499D02*
Y83501D01*
X269334D01*
X270167Y84334D01*
Y87666D01*
X269334Y88499D01*
X266835D01*
X275165Y83501D02*
X271833D01*
X275165Y86833D01*
Y87666D01*
X274332Y88499D01*
X272666D01*
X271833Y87666D01*
X266668Y118499D02*
Y113501D01*
X269167D01*
X270000Y114334D01*
Y117666D01*
X269167Y118499D01*
X266668D01*
X271666Y113501D02*
X273332D01*
X272499D01*
Y118499D01*
X271666Y117666D01*
X125334Y161167D02*
X124501Y160334D01*
Y158668D01*
X125334Y157835D01*
X128666D01*
X129499Y158668D01*
Y160334D01*
X128666Y161167D01*
X129499Y165332D02*
X124501D01*
X127000Y162833D01*
Y166165D01*
X81564Y235813D02*
X80731Y236646D01*
X79065D01*
X78232Y235813D01*
Y232481D01*
X79065Y231648D01*
X80731D01*
X81564Y232481D01*
X83230Y235813D02*
X84063Y236646D01*
X85730D01*
X86563Y235813D01*
Y234980D01*
X85730Y234147D01*
X84896D01*
X85730D01*
X86563Y233314D01*
Y232481D01*
X85730Y231648D01*
X84063D01*
X83230Y232481D01*
X199167Y387666D02*
X198334Y388499D01*
X196668D01*
X195835Y387666D01*
Y384334D01*
X196668Y383501D01*
X198334D01*
X199167Y384334D01*
X204165Y383501D02*
X200833D01*
X204165Y386833D01*
Y387666D01*
X203332Y388499D01*
X201666D01*
X200833Y387666D01*
X404000D02*
X403167Y388499D01*
X401501D01*
X400668Y387666D01*
Y384334D01*
X401501Y383501D01*
X403167D01*
X404000Y384334D01*
X405666Y383501D02*
X407332D01*
X406499D01*
Y388499D01*
X405666Y387666D01*
M02*
